<?xml version="1.0" encoding="UTF-8"?>
<svg id="Layer_1" data-name="Layer 1" xmlns="http://www.w3.org/2000/svg" xmlns:xlink="http://www.w3.org/1999/xlink" viewBox="0 0 450 200">
  <defs>
    <style>
      .cls-1 {
        fill: none;
      }

      .cls-1, .cls-2, .cls-3 {
        stroke: #fff;
        stroke-miterlimit: 10;
      }

      .cls-2 {
        fill: url(#linear-gradient);
      }

      .cls-4 {
        filter: url(#drop-shadow-1);
      }

      .cls-3 {
        fill: url(#linear-gradient-2);
      }
    </style>
    <filter id="drop-shadow-1" filterUnits="userSpaceOnUse">
      <feOffset dx="0" dy="0"/>
      <feGaussianBlur result="blur" stdDeviation="2"/>
      <feFlood flood-color="#000" flood-opacity=".2"/>
      <feComposite in2="blur" operator="in"/>
      <feComposite in="SourceGraphic"/>
    </filter>
    <linearGradient id="linear-gradient" x1="163.87" y1="52.92" x2="285.99" y2="52.92" gradientUnits="userSpaceOnUse">
      <stop offset="0" stop-color="#fe7bac"/>
      <stop offset="1" stop-color="#7cbcec"/>
    </linearGradient>
    <linearGradient id="linear-gradient-2" x1="190.1" y1="152.89" x2="260.72" y2="152.89" xlink:href="#linear-gradient"/>
  </defs>
  <g class="cls-4">
    <path class="cls-2" d="m285.48,73.81c-1.02,8.67-13.53,6.88-13.53,6.88-4.13,13.3-26.37,7.8-26.37,7.8-27.52,12.84-41.73,0-41.73,0-24.08,5.04-25.91-8.03-25.91-8.03-11.92-.23-13.3-5.96-13.3-5.96-6.88-44.94,34.62-55.95,34.62-55.95,7.11-8.25,19.49-4.82,19.49-4.82,7.34-4.82,12.61.23,12.61.23,0,0,11.92-3.9,18.11,4.13,0,0,41.5,8.94,36,55.72Z"/>
    <polygon class="cls-3" points="223.11 116.77 190.78 131.68 190.1 171.34 226.1 189 260.72 171.57 260.49 130.99 223.11 116.77"/>
    <path class="cls-1" d="m264.16,88.48l-39.94,43.14c-.06.07-.18.02-.18-.07l.91-37.56"/>
    <polyline class="cls-1" points="243.98 88.94 224.03 131.82 233.66 92.38"/>
    <path class="cls-1" d="m215.78,93.53l8.23,38.2s.05.04.07.01l27.46-42.34"/>
    <polyline class="cls-1" points="197.89 89.17 224.03 131.82 207.29 90.59"/>
    <line class="cls-1" x1="186.66" y1="88.71" x2="224.03" y2="131.82"/>
  </g>
  <polyline class="cls-1" points="190.78 131.68 226.32 146.04 260.49 130.99"/>
  <line class="cls-1" x1="226.1" y1="188" x2="226.32" y2="146.04"/>
</svg>