<?xml version="1.0" encoding="UTF-8"?>
<svg id="Layer_1" data-name="Layer 1" xmlns="http://www.w3.org/2000/svg" viewBox="0 0 1920 1080">
  <defs>
    <style>
      .cls-1 {
        stroke: #fa7eaf;
      }

      .cls-1, .cls-2, .cls-3, .cls-4, .cls-5, .cls-6, .cls-7, .cls-8, .cls-9, .cls-10, .cls-11, .cls-12, .cls-13, .cls-14, .cls-15, .cls-16, .cls-17, .cls-18, .cls-19, .cls-20, .cls-21, .cls-22, .cls-23, .cls-24, .cls-25, .cls-26, .cls-27, .cls-28, .cls-29 {
        stroke-miterlimit: 10;
      }

      .cls-1, .cls-2, .cls-3, .cls-4, .cls-5, .cls-6, .cls-8, .cls-9, .cls-10, .cls-11, .cls-12, .cls-13, .cls-14, .cls-15, .cls-16, .cls-17, .cls-18, .cls-19, .cls-20, .cls-21, .cls-23, .cls-24, .cls-25, .cls-26, .cls-27, .cls-28, .cls-29 {
        fill: none;
      }

      .cls-2 {
        stroke: #c09bcb;
      }

      .cls-3 {
        stroke: #f580b1;
      }

      .cls-4 {
        stroke: #a6a8d8;
      }

      .cls-5 {
        stroke: #c598c9;
      }

      .cls-6 {
        stroke: #aba5d6;
      }

      .cls-7, .cls-22, .cls-23 {
        stroke: #fff;
      }

      .cls-7, .cls-22, .cls-23, .cls-30, .cls-31 {
        font-family: Bauhaus93, 'Bauhaus 93';
        font-size: 124.21px;
      }

      .cls-7, .cls-22, .cls-31 {
        fill: #ff7bac;
      }

      .cls-8 {
        stroke: #d590c1;
      }

      .cls-9 {
        stroke: #86b8e8;
      }

      .cls-10 {
        stroke: #ff7bac;
      }

      .cls-11 {
        stroke: #e588b9;
      }

      .cls-12 {
        stroke: #b6a0d0;
      }

      .cls-13 {
        stroke: #e08bbc;
      }

      .cls-14 {
        stroke: #96b0e0;
      }

      .cls-15 {
        stroke: #da8dbe;
      }

      .cls-16 {
        stroke: #bb9dce;
      }

      .cls-17 {
        stroke: #a1abdb;
      }

      .cls-18 {
        stroke: #81baea;
      }

      .cls-19 {
        stroke: #7cbded;
      }

      .cls-20 {
        stroke: #d093c3;
      }

      .cls-21 {
        stroke: #b0a3d3;
      }

      .cls-22 {
        stroke-width: 2px;
      }

      .cls-24 {
        stroke: #8cb5e5;
      }

      .cls-30 {
        fill: #7cbded;
      }

      .cls-25 {
        stroke: #9baddd;
      }

      .cls-26 {
        stroke: #ef83b4;
      }

      .cls-27 {
        stroke: #ea86b6;
      }

      .cls-28 {
        stroke: #cb95c6;
      }

      .cls-29 {
        stroke: #91b2e3;
      }
    </style>
  </defs>
  <g>
    <path class="cls-10" d="m0,526.71c118.36-97.84,296.38-116.31,432.3-44.86,61.72,32.45,113.51,80.59,170.16,121.25,85.85,61.6,185.09,106.64,289.93,119.8,104.83,13.15,215.36-7.22,303.14-66.03,82.59-55.33,148.41-144.68,246.21-162.49,80.09-14.58,159.33,23.63,231.8,60.73,82.16,42.06,164.31,84.13,246.47,126.19"/>
    <path class="cls-1" d="m0,517.89c114.73-90.25,288.37-104.88,422.26-34.53,60.81,31.95,111.98,79.03,168.35,117.88,87.29,60.17,188.15,100.47,294.01,113.79,105.66,13.3,216.02-2.82,304.75-56.79,52.16-31.61,98.14-76.27,149.51-110.25,30.94-20.51,63.65-37.11,100.62-44.24,67.84-13.08,134.84,9.02,197.64,36.16,11.66,5.03,23.18,10.23,34.55,15.4,82.36,37.49,164.99,75.1,248.32,115.03"/>
    <path class="cls-3" d="m0,509.06c111.1-82.66,280.35-93.44,412.22-24.19,59.89,31.45,110.48,77.44,166.53,114.52,88.77,58.72,191.21,94.29,298.08,107.79,106.49,13.45,216.68,1.58,306.35-47.55,52.82-28.71,99.8-70.3,152.24-102.9,31.53-19.68,64.67-36.03,101.81-43.59,68.13-13.86,135.18,5.09,197.98,28.89,11.67,4.41,23.21,8.97,34.61,13.51,82.56,32.92,165.67,66.07,250.17,103.86"/>
    <path class="cls-26" d="m0,500.24c107.47-75.07,272.34-82.01,402.19-13.86,58.97,30.95,109.01,75.82,164.72,111.15,90.29,57.26,194.27,88.11,302.16,101.78,107.32,13.6,217.23,5.76,307.96-38.31,53.42-25.94,101.45-64.33,154.98-95.55,32.13-18.84,65.69-34.96,103-42.95,68.41-14.64,135.51,1.15,198.32,21.62,11.67,3.78,23.23,7.71,34.66,11.62,82.77,28.35,166.35,57.04,252.02,92.7"/>
    <path class="cls-27" d="m0,491.41c103.84-67.48,264.33-70.58,392.15-3.53,58.06,30.45,107.58,74.18,162.9,107.78,91.85,55.78,197.33,81.93,306.24,95.78,108.15,13.74,217.88,10.09,309.57-29.07,54.07-23.09,103.11-58.36,157.72-88.2,32.72-18.01,66.71-33.88,104.18-42.3,68.7-15.42,135.84-2.79,198.66,14.34,11.68,3.16,23.26,6.45,34.71,9.73,82.97,23.77,167.03,48.01,253.87,81.53"/>
    <path class="cls-11" d="m0,482.59c100.21-59.89,256.31-59.14,382.12,6.8,57.14,29.95,106.17,72.51,161.09,104.41,93.45,54.28,200.39,75.76,310.32,89.78,108.98,13.89,218.53,14.42,311.17-19.83,54.72-20.23,104.76-52.39,160.45-80.85,33.31-17.17,67.73-32.81,105.37-41.66,68.99-16.19,136.18-6.72,198.99,7.07,11.69,2.53,23.28,5.19,34.77,7.84,83.18,19.2,167.71,38.98,255.72,70.37"/>
    <path class="cls-13" d="m0,473.76c96.58-52.3,248.3-47.71,372.08,17.13,56.23,29.45,104.79,70.82,159.27,101.04,95.08,52.76,203.44,69.58,314.4,83.77,109.81,14.04,219.19,18.76,312.78-10.59,55.38-17.37,106.47-46.3,163.19-73.49,33.94-16.27,68.75-31.74,106.56-41.01,69.27-16.97,136.51-10.66,199.33-.2,11.7,1.91,23.31,3.93,34.82,5.95,83.38,14.63,168.39,29.95,257.57,59.2"/>
    <path class="cls-15" d="m0,464.94c92.95-44.71,240.28-36.27,362.05,27.46,55.31,28.95,103.44,69.09,157.46,97.68,96.76,51.2,206.5,63.4,318.48,77.77,110.63,14.19,219.86,23.11,314.39-1.35,56.05-14.5,108.13-40.32,165.92-66.14,34.53-15.43,69.77-30.66,107.74-40.37,69.56-17.75,136.85-14.6,199.67-7.47,11.7,1.28,23.33,2.67,34.87,4.05,83.59,10.06,169.07,20.92,259.42,48.04"/>
    <path class="cls-8" d="m0,456.11c89.32-37.12,232.27-24.84,352.01,37.79,54.4,28.45,102.11,67.34,155.64,94.31,98.47,49.61,209.56,57.22,322.55,71.76,111.46,14.34,220.54,27.46,315.99,7.89,56.72-11.63,109.79-34.34,168.66-58.79,35.12-14.59,70.79-29.59,108.93-39.72,69.85-18.53,137.18-18.53,200.01-14.75,11.71.66,23.35,1.41,34.93,2.16,83.79,5.48,169.75,11.9,261.27,36.87"/>
    <path class="cls-20" d="m0,447.29c85.69-29.53,224.26-13.4,341.97,48.12,53.48,27.95,100.8,65.55,153.83,90.94,100.22,47.99,212.62,51.04,326.63,65.76,112.29,14.48,221.22,31.83,317.6,17.13,57.39-8.75,111.44-28.36,171.4-51.44,35.71-13.75,71.8-28.51,110.12-39.08,70.13-19.31,137.51-22.34,200.35-22.02,11.72.06,23.38.15,34.98.27,84,.91,170.43,2.87,263.12,25.71"/>
    <path class="cls-28" d="m0,438.46c82.07-21.94,216.24-1.97,331.94,58.45,52.57,27.45,99.51,63.74,152.01,87.57,102,46.32,215.68,44.87,330.71,59.76,113.12,14.63,221.91,36.2,319.21,26.37,58.06-5.87,113.1-22.38,174.13-44.09,36.31-12.91,72.82-27.44,111.3-38.43,70.42-20.09,137.85-26.27,200.69-29.29,11.73-.56,23.4-1.11,35.04-1.62,84.2-3.66,171.11-6.16,264.97,14.54"/>
    <path class="cls-5" d="m0,429.64c78.44-14.35,208.23,9.47,321.9,68.78,51.65,26.95,98.24,61.89,150.2,84.21,103.81,44.59,218.74,38.69,334.79,53.75,113.95,14.78,222.6,40.59,320.81,35.61,58.74-2.98,114.75-16.4,176.87-36.74,36.9-12.08,73.84-26.37,112.49-37.79,70.71-20.87,138.19-30.2,201.03-36.56,11.73-1.19,23.43-2.37,35.09-3.51,84.4-8.23,171.79-15.19,266.82,3.38"/>
    <path class="cls-2" d="m0,420.81c74.81-6.76,200.22,20.9,311.87,79.11,50.73,26.45,96.99,60.01,148.38,80.84,105.65,42.82,221.79,32.51,338.87,47.75,114.78,14.93,223.29,43.8,322.42,44.85,59.41.62,116.4-10.43,179.61-29.38,37.49-11.24,74.86-25.29,113.68-37.14,70.99-21.65,138.54-34.14,201.37-43.84,11.74-1.81,23.45-3.63,35.14-5.4,84.61-12.81,172.47-24.22,268.68-7.79"/>
    <path class="cls-16" d="m0,411.99c71.18.83,192.2,32.33,301.83,89.44,49.82,25.95,95.76,58.1,146.57,77.47,107.52,40.99,224.85,26.33,342.95,41.74,115.61,15.08,223.98,49.4,324.02,54.08,60.09,2.82,118.05-4.46,182.34-22.03,38.08-10.41,75.88-24.22,114.86-36.5,71.28-22.42,138.88-38.08,201.71-51.11,11.75-2.44,23.48-4.89,35.2-7.29,84.81-17.38,173.15-33.25,270.53-18.95"/>
    <path class="cls-12" d="m0,403.16c67.55,8.42,184.19,43.77,291.8,99.77,48.9,25.45,94.53,56.16,144.75,74.1,109.42,39.09,227.91,20.15,347.03,35.74,116.43,15.22,224.66,53.81,325.63,63.32,60.77,5.72,119.7,1.51,185.08-14.68,38.67-9.58,76.9-23.14,116.05-35.85,71.56-23.2,139.22-42.02,202.05-58.38,11.76-3.06,23.5-6.15,35.25-9.18,85.02-21.95,173.82-42.28,272.38-30.12"/>
    <path class="cls-21" d="m0,394.34c63.92,16.01,176.18,55.2,281.76,110.1,47.99,24.95,93.32,54.19,142.93,70.74,111.34,37.12,230.97,13.98,351.1,29.73,117.26,15.37,225.35,58.24,327.24,72.56,61.44,8.64,121.35,7.48,187.81-7.33,39.26-8.74,77.92-22.07,117.24-35.21,71.85-23.98,139.52-46.09,202.38-65.65,11.76-3.71,23.53-7.4,35.3-11.08,85.22-26.52,174.5-51.31,274.23-41.28"/>
    <path class="cls-6" d="m0,385.51c60.29,23.6,168.16,66.64,271.72,120.43,47.07,24.45,92.11,52.19,141.12,67.37,113.28,35.08,234.03,7.8,355.18,23.73,118.09,15.52,226.03,62.68,328.84,81.8,62.11,11.55,123,13.44,190.55.02,39.85-7.92,78.94-20.99,118.42-34.56,72.14-24.76,139.85-50.03,202.72-72.93,11.77-4.34,23.55-8.66,35.36-12.97,85.43-31.09,175.18-60.33,276.08-52.44"/>
    <path class="cls-4" d="m0,376.69c56.66,31.19,160.15,78.07,261.69,130.76,46.16,23.95,90.91,50.16,139.3,64,115.23,32.95,237.08,1.62,359.26,17.73,118.92,15.67,226.7,67.12,330.45,91.04,62.78,14.48,124.63,19.27,193.29,7.37,40.42-7.17,79.96-19.92,119.61-33.92,72.42-25.54,140.18-53.96,203.06-80.2,11.78-4.96,23.58-9.92,35.41-14.86,85.63-35.67,175.86-69.36,277.93-63.61"/>
    <path class="cls-17" d="m0,367.86c53.03,38.78,152.13,89.51,251.65,141.1,45.24,23.45,89.71,48.1,137.49,60.63,117.2,30.74,240.14-4.56,363.34,11.72,119.75,15.82,227.37,71.56,332.06,100.28,63.44,17.4,126.29,25.24,196.02,14.73,41.01-6.33,80.98-18.85,120.8-33.27,72.71-26.32,140.52-57.9,203.4-87.47,11.78-5.58,23.6-11.18,35.46-16.75,85.83-40.24,176.54-78.39,279.78-74.77"/>
    <path class="cls-25" d="m0,359.04c49.41,46.37,144.12,100.94,241.62,151.43,44.33,22.95,88.51,46.01,135.67,57.26,119.18,28.44,243.2-10.74,367.42,5.72,120.58,15.96,228.03,76.02,333.66,109.52,64.1,20.33,127.94,31.21,198.76,22.08,41.61-5.5,82-17.77,121.98-32.63,73-27.1,140.85-61.84,203.74-94.74,11.79-6.21,23.63-12.44,35.52-18.64,86.04-44.81,177.22-87.42,281.63-85.94"/>
    <path class="cls-14" d="m0,350.21c45.78,53.97,136.11,112.38,231.58,161.76,43.41,22.45,87.31,43.89,133.86,53.9,121.16,26.04,246.26-16.91,371.5-.29,121.41,16.11,228.69,80.47,335.27,118.76,64.76,23.26,129.6,37.18,201.5,29.43,42.2-4.66,83.02-16.7,123.17-31.98,73.28-27.88,141.18-65.77,204.08-102.02,11.8-6.83,23.65-13.7,35.57-20.53,86.24-49.38,177.9-96.45,283.48-97.1"/>
    <path class="cls-29" d="m0,341.39c42.15,61.56,128.09,123.81,221.54,172.09,42.5,21.95,86.1,41.75,132.04,50.53,123.13,23.54,249.32-23.09,375.57-6.29,122.24,16.26,229.34,84.93,336.88,128,65.41,26.2,131.25,43.15,204.23,36.78,42.79-3.83,84.04-15.62,124.36-31.33,73.57-28.66,141.52-69.71,204.42-109.29,11.81-7.46,23.67-14.96,35.63-22.42,86.45-53.96,178.58-105.48,285.33-108.27"/>
    <path class="cls-24" d="m0,332.56c38.52,69.15,120.08,135.24,211.51,182.42,41.58,21.45,84.89,39.58,130.23,47.16,125.1,20.93,252.38-29.27,379.65-12.3,123.06,16.41,229.9,89.58,338.48,137.24,66.01,29.25,132.91,49.12,206.97,44.13,43.38-3,85.06-14.55,125.54-30.69,73.85-29.43,141.85-73.65,204.76-116.56,11.81-8.08,23.7-16.22,35.68-24.32,86.65-58.53,179.26-114.51,287.18-119.43"/>
    <path class="cls-9" d="m0,323.74c34.89,76.74,112.07,146.68,201.47,192.75,40.66,20.95,83.66,37.38,128.41,43.79,127.06,18.21,255.43-35.45,383.73-18.3,123.89,16.56,230.56,93.98,340.09,146.48,66.67,32.14,134.56,55.09,209.7,51.48,43.98-2.16,86.08-13.48,126.73-30.04,74.14-30.21,142.19-77.59,205.1-123.83,11.82-8.71,23.72-17.48,35.73-26.21,86.86-63.1,179.94-123.54,289.03-130.6"/>
    <path class="cls-18" d="m0,314.91c31.26,84.33,104.05,158.11,191.44,203.08,39.75,20.45,82.43,35.16,126.6,40.43,129,15.38,258.49-41.62,387.81-24.3,124.72,16.7,231.22,98.38,341.69,155.72,67.33,35.04,136.22,61.06,212.44,58.84,44.57-1.33,87.1-12.4,127.92-29.4,74.43-30.99,142.52-81.52,205.43-131.11,11.83-9.33,23.75-18.74,35.79-28.1,87.06-67.67,180.62-132.56,290.88-141.76"/>
    <path class="cls-19" d="m0,306.09c40.2,133.73,166.72,237.22,306.19,250.47,130.92,12.43,261.55-47.8,391.89-30.31,202.16,27.13,354.5,233.38,558.48,231.14,127.49-1.4,237.44-85.19,334.88-167.13,97.43-81.95,201.73-170.02,328.57-182.92"/>
  </g>
  <text class="cls-7" transform="translate(659.65 217.27)"><tspan x="0" y="0">core</tspan></text>
  <g>
    <text class="cls-22" transform="translate(931.14 217.27)"><tspan x="0" y="0">charts</tspan></text>
    <g>
      <text class="cls-31" transform="translate(939.14 221.27)"><tspan x="0" y="0">charts</tspan></text>
      <text class="cls-31" transform="translate(938.94 221.17)"><tspan x="0" y="0">charts</tspan></text>
      <text class="cls-31" transform="translate(938.74 221.07)"><tspan x="0" y="0">charts</tspan></text>
      <text class="cls-31" transform="translate(938.54 220.97)"><tspan x="0" y="0">charts</tspan></text>
      <text class="cls-31" transform="translate(938.34 220.87)"><tspan x="0" y="0">charts</tspan></text>
      <text class="cls-31" transform="translate(938.14 220.77)"><tspan x="0" y="0">charts</tspan></text>
      <text class="cls-31" transform="translate(937.94 220.67)"><tspan x="0" y="0">charts</tspan></text>
      <text class="cls-31" transform="translate(937.74 220.57)"><tspan x="0" y="0">charts</tspan></text>
      <text class="cls-31" transform="translate(937.54 220.47)"><tspan x="0" y="0">charts</tspan></text>
      <text class="cls-31" transform="translate(937.34 220.37)"><tspan x="0" y="0">charts</tspan></text>
      <text class="cls-31" transform="translate(937.14 220.27)"><tspan x="0" y="0">charts</tspan></text>
      <text class="cls-31" transform="translate(936.94 220.17)"><tspan x="0" y="0">charts</tspan></text>
      <text class="cls-31" transform="translate(936.74 220.07)"><tspan x="0" y="0">charts</tspan></text>
      <text class="cls-31" transform="translate(936.54 219.97)"><tspan x="0" y="0">charts</tspan></text>
      <text class="cls-31" transform="translate(936.34 219.87)"><tspan x="0" y="0">charts</tspan></text>
      <text class="cls-31" transform="translate(936.14 219.77)"><tspan x="0" y="0">charts</tspan></text>
      <text class="cls-31" transform="translate(935.94 219.67)"><tspan x="0" y="0">charts</tspan></text>
      <text class="cls-31" transform="translate(935.74 219.57)"><tspan x="0" y="0">charts</tspan></text>
      <text class="cls-31" transform="translate(935.54 219.47)"><tspan x="0" y="0">charts</tspan></text>
      <text class="cls-31" transform="translate(935.34 219.37)"><tspan x="0" y="0">charts</tspan></text>
      <text class="cls-31" transform="translate(935.14 219.27)"><tspan x="0" y="0">charts</tspan></text>
      <text class="cls-31" transform="translate(934.94 219.17)"><tspan x="0" y="0">charts</tspan></text>
      <text class="cls-31" transform="translate(934.74 219.07)"><tspan x="0" y="0">charts</tspan></text>
      <text class="cls-31" transform="translate(934.54 218.97)"><tspan x="0" y="0">charts</tspan></text>
      <text class="cls-31" transform="translate(934.34 218.87)"><tspan x="0" y="0">charts</tspan></text>
      <text class="cls-31" transform="translate(934.14 218.77)"><tspan x="0" y="0">charts</tspan></text>
      <text class="cls-31" transform="translate(933.94 218.67)"><tspan x="0" y="0">charts</tspan></text>
      <text class="cls-31" transform="translate(933.74 218.57)"><tspan x="0" y="0">charts</tspan></text>
      <text class="cls-31" transform="translate(933.54 218.47)"><tspan x="0" y="0">charts</tspan></text>
      <text class="cls-31" transform="translate(933.34 218.37)"><tspan x="0" y="0">charts</tspan></text>
      <text class="cls-31" transform="translate(933.14 218.27)"><tspan x="0" y="0">charts</tspan></text>
      <text class="cls-31" transform="translate(932.94 218.17)"><tspan x="0" y="0">charts</tspan></text>
      <text class="cls-31" transform="translate(932.74 218.07)"><tspan x="0" y="0">charts</tspan></text>
      <text class="cls-31" transform="translate(932.54 217.97)"><tspan x="0" y="0">charts</tspan></text>
      <text class="cls-31" transform="translate(932.34 217.87)"><tspan x="0" y="0">charts</tspan></text>
      <text class="cls-31" transform="translate(932.14 217.77)"><tspan x="0" y="0">charts</tspan></text>
      <text class="cls-31" transform="translate(931.94 217.67)"><tspan x="0" y="0">charts</tspan></text>
      <text class="cls-31" transform="translate(931.74 217.57)"><tspan x="0" y="0">charts</tspan></text>
      <text class="cls-31" transform="translate(931.54 217.47)"><tspan x="0" y="0">charts</tspan></text>
      <text class="cls-31" transform="translate(931.34 217.37)"><tspan x="0" y="0">charts</tspan></text>
      <text class="cls-31" transform="translate(931.14 217.27)"><tspan x="0" y="0">charts</tspan></text>
    </g>
    <text class="cls-30" transform="translate(931.14 217.27)"><tspan x="0" y="0">charts</tspan></text>
    <text class="cls-23" transform="translate(931.14 217.27)"><tspan x="0" y="0">charts</tspan></text>
  </g>
</svg>