<?xml version="1.0" encoding="UTF-8"?>
<svg id="Layer_1" data-name="Layer 1" xmlns="http://www.w3.org/2000/svg" viewBox="0 0 1920 1080">
  <defs>
    <style>
      .cls-1 {
        stroke: #eb85b6;
      }

      .cls-1, .cls-2, .cls-3, .cls-4, .cls-5, .cls-6, .cls-7, .cls-8, .cls-9, .cls-10, .cls-11, .cls-12, .cls-13, .cls-14, .cls-15, .cls-16, .cls-17, .cls-18, .cls-19, .cls-20, .cls-21, .cls-22, .cls-23, .cls-24, .cls-25, .cls-26, .cls-27, .cls-28, .cls-29, .cls-30, .cls-31, .cls-32, .cls-33, .cls-34, .cls-35, .cls-36, .cls-37 {
        stroke-miterlimit: 10;
      }

      .cls-1, .cls-2, .cls-3, .cls-4, .cls-6, .cls-7, .cls-8, .cls-9, .cls-10, .cls-11, .cls-12, .cls-13, .cls-14, .cls-15, .cls-16, .cls-17, .cls-18, .cls-19, .cls-20, .cls-21, .cls-22, .cls-23, .cls-24, .cls-25, .cls-27, .cls-28, .cls-29, .cls-30, .cls-31, .cls-32, .cls-33, .cls-34, .cls-35, .cls-36, .cls-37 {
        fill: none;
      }

      .cls-2 {
        stroke: #e389ba;
      }

      .cls-3 {
        stroke: #bf9bcc;
      }

      .cls-4 {
        stroke: #f77fb0;
      }

      .cls-5, .cls-26, .cls-28 {
        stroke: #fff;
      }

      .cls-5, .cls-26, .cls-28, .cls-38, .cls-39 {
        font-family: Bauhaus93, 'Bauhaus 93';
        font-size: 124.21px;
      }

      .cls-5, .cls-26, .cls-39 {
        fill: #ff7bac;
      }

      .cls-6 {
        stroke: #b89fcf;
      }

      .cls-7 {
        stroke: #ff7bac;
      }

      .cls-8 {
        stroke: #a8a7d7;
      }

      .cls-9 {
        stroke: #d78fc0;
      }

      .cls-10 {
        stroke: #c399ca;
      }

      .cls-11 {
        stroke: #88b7e7;
      }

      .cls-12 {
        stroke: #94b1e1;
      }

      .cls-13 {
        stroke: #80bbeb;
      }

      .cls-14 {
        stroke: #bc9dcd;
      }

      .cls-15 {
        stroke: #a0abdb;
      }

      .cls-16 {
        stroke: #cf93c4;
      }

      .cls-17 {
        stroke: #9caddd;
      }

      .cls-18 {
        stroke: #7cbded;
      }

      .cls-19 {
        stroke: #c797c8;
      }

      .cls-20 {
        stroke: #f381b2;
      }

      .cls-21 {
        stroke: #b0a3d3;
      }

      .cls-22 {
        stroke: #db8dbe;
      }

      .cls-23 {
        stroke: #b4a1d1;
      }

      .cls-24 {
        stroke: #98afdf;
      }

      .cls-25 {
        stroke: #fb7dae;
      }

      .cls-26 {
        stroke-width: 2px;
      }

      .cls-27 {
        stroke: #84b9e9;
      }

      .cls-29 {
        stroke: #8cb5e5;
      }

      .cls-38 {
        fill: #7cbded;
      }

      .cls-30 {
        stroke: #a4a9d9;
      }

      .cls-31 {
        stroke: #aca5d5;
      }

      .cls-32 {
        stroke: #d391c2;
      }

      .cls-33 {
        stroke: #90b3e3;
      }

      .cls-34 {
        stroke: #df8bbc;
      }

      .cls-35 {
        stroke: #e787b8;
      }

      .cls-36 {
        stroke: #ef83b4;
      }

      .cls-37 {
        stroke: #cb95c6;
      }
    </style>
  </defs>
  <g>
    <path class="cls-7" d="m2.6,395.46c44.36-36.98,111.15-36.06,164.36-13.41s96.19,63.32,138.76,102.33c42.57,39.01,87.57,78.12,142.45,96.39,81.01,26.97,170.51,4.14,248.16-31.3,77.65-35.44,149.76-83.39,230.82-110.21,81.06-26.82,177.17-29.06,245.18,22.37,62.71,47.43,87.99,128.75,137.96,189.33,68.82,83.42,181.11,121.58,289.53,124.87s215.15-24,320.15-51.09"/>
    <path class="cls-25" d="m2.52,401.39c31.24-24.59,73.34-32.2,113.66-27.55,17.35,1.99,34.38,6.25,50.2,12.39,20.6,8.02,39.59,18.72,57.71,30.89,28.1,18.88,54.17,41.25,80.32,63.7,42.94,36.86,88.42,75.25,143.24,93.9,17.2,5.85,34.74,9.56,52.42,11.46,65.45,7.09,132.96-10.58,193.63-36.09,7.64-3.21,15.23-6.55,22.79-9.98,68.69-31.17,134.63-70.05,207.77-92.95,17.81-5.57,36.33-10.04,55.11-13.11,66.84-10.92,137.02-4.04,190.4,34.1,23.93,17.11,42.59,38.87,59.26,62.38,27.25,38.4,49.17,81.49,80.42,116.99,6.71,7.63,13.82,14.85,21.29,21.68,69.74,63.75,170.83,93.47,268.82,96.21,5.27.15,10.53.23,15.8.24,103.07.29,204.64-24.35,304.65-48.81"/>
    <path class="cls-4" d="m2.44,407.33c31.45-23.31,73.66-31.21,113.66-27.6,17.22,1.53,34.07,5.21,49.69,10.69,20.35,7.16,39.05,16.92,56.98,28.03,27.81,17.23,53.89,37.64,80.31,58.82,43.29,34.7,89.27,72.37,144.03,91.4,17.16,5.96,34.63,9.89,52.17,12.12,65,8.31,131.55-6.95,191.77-30.07,7.58-2.91,15.12-5.95,22.64-9.08,68.28-28.47,134.41-64.93,207.65-86.58,17.84-5.27,36.38-9.5,55.18-12.42,66.86-10.4,137-4.1,190.66,32.04,24.05,16.21,42.96,36.83,59.87,59.07,27.68,36.3,50.02,76.92,81.51,110.33,6.76,7.18,13.91,13.98,21.42,20.4,70.13,59.98,171.2,87.99,269.26,90.5,5.27.14,10.54.21,15.81.22,103.14.19,204.8-23.12,304.94-46.27"/>
    <path class="cls-20" d="m2.37,413.27c31.67-22.03,73.98-30.22,113.66-27.64,17.09,1.08,33.75,4.18,49.19,8.98,20.09,6.3,38.51,15.13,56.25,25.18,27.52,15.59,53.6,34.03,80.3,53.93,43.64,32.54,90.13,69.5,144.83,88.9,17.13,6.06,34.51,10.23,51.92,12.77,64.55,9.53,130.14-3.31,189.91-24.05,7.53-2.61,15.02-5.35,22.49-8.18,67.88-25.77,134.19-59.8,207.54-80.2,17.87-4.96,36.43-8.96,55.25-11.74,66.88-9.89,136.97-4.15,190.92,29.97,24.17,15.31,43.32,34.8,60.49,55.76,28.1,34.2,50.87,72.35,82.61,103.68,6.81,6.74,14,13.11,21.55,19.13,70.51,56.21,171.57,82.51,269.7,84.79,5.28.12,10.55.19,15.82.19,103.21.1,204.97-21.89,305.23-43.72"/>
    <path class="cls-36" d="m2.29,419.2c31.88-20.76,74.3-29.23,113.66-27.69,16.96.63,33.43,3.14,48.68,7.27,19.84,5.44,37.98,13.34,55.52,22.32,27.24,13.95,53.31,30.41,80.29,49.05,43.98,30.39,90.98,66.62,145.62,86.4,17.09,6.17,34.39,10.57,51.67,13.42,64.11,10.75,128.74.32,188.06-18.03,7.47-2.31,14.91-4.75,22.33-7.29,67.48-23.08,133.97-54.68,207.43-73.82,17.91-4.65,36.49-8.42,55.32-11.05,66.91-9.37,136.95-4.21,191.18,27.91,24.29,14.41,43.69,32.76,61.1,52.44,28.53,32.1,51.72,67.78,83.7,97.03,6.86,6.29,14.1,12.24,21.68,17.86,70.89,52.44,171.95,77.03,270.14,79.08,5.28.11,10.55.16,15.83.16,103.28,0,205.14-20.67,305.51-41.18"/>
    <path class="cls-1" d="m2.21,425.14c32.09-19.48,74.63-28.25,113.66-27.74,16.83.17,33.11,2.07,48.17,5.57,19.6,4.55,37.45,11.55,54.79,19.47,26.96,12.32,53.02,26.8,80.27,44.17,44.31,28.23,91.83,63.75,146.41,83.9,17.05,6.28,34.28,10.9,51.42,14.07,63.66,11.96,127.33,3.95,186.2-12,7.41-2.01,14.8-4.15,22.18-6.39,67.07-20.38,133.74-49.56,207.31-67.44,17.94-4.35,36.54-7.88,55.38-10.37,66.93-8.86,136.93-4.26,191.44,25.85,24.41,13.51,44.06,30.73,61.72,49.13,28.96,29.99,52.56,63.21,84.8,90.38,6.91,5.85,14.19,11.36,21.82,16.58,71.28,48.67,172.32,71.56,270.58,73.37,5.28.1,10.56.14,15.84.14,103.35-.09,205.3-19.44,305.8-38.64"/>
    <path class="cls-35" d="m2.13,431.08c32.31-18.2,74.95-27.26,113.66-27.78,16.7-.28,32.8,1.03,47.67,3.86,19.34,3.68,36.93,9.76,54.07,16.61,26.7,10.68,52.71,23.18,80.26,39.28,44.62,26.07,92.68,60.87,147.2,81.41,17.01,6.39,34.16,11.24,51.17,14.73,63.21,13.18,125.92,7.59,184.34-5.98,7.35-1.71,14.69-3.55,22.03-5.49,66.67-17.69,133.52-44.44,207.2-61.06,17.97-4.04,36.59-7.34,55.45-9.68,66.95-8.34,136.91-4.31,191.7,23.78,24.53,12.61,44.42,28.69,62.33,45.82,29.38,27.89,53.41,58.64,85.89,83.73,6.96,5.4,14.28,10.49,21.95,15.31,71.66,44.9,172.7,66.08,271.02,67.66,5.29.09,10.57.12,15.85.11,103.42-.18,205.47-18.21,306.09-36.09"/>
    <path class="cls-2" d="m2.05,437.01c32.52-16.93,75.27-26.27,113.66-27.83,16.57-.73,32.48-.01,47.16,2.16,19.09,2.82,36.42,7.97,53.34,13.76,26.45,9.05,52.4,19.57,80.25,34.4,44.93,23.92,93.54,57.99,147.99,78.91,16.98,6.49,34.04,11.57,50.91,15.38,62.77,14.4,124.51,11.22,182.48.04,7.3-1.41,14.58-2.95,21.88-4.6,66.27-14.99,133.3-39.32,207.09-54.68,18-3.73,36.64-6.81,55.52-9,66.97-7.83,136.89-4.37,191.96,21.72,24.65,11.72,44.75,26.7,62.95,42.51,29.75,25.86,54.26,54.07,86.99,77.08,7.01,4.96,14.38,9.62,22.08,14.04,72.04,41.13,173.07,60.6,271.46,61.95,5.29.07,10.58.1,15.86.09,103.49-.27,205.64-16.98,306.37-33.55"/>
    <path class="cls-34" d="m1.97,442.95c32.74-15.65,75.59-25.28,113.66-27.87,16.44-1.19,32.15-1.05,46.65.45,18.83,1.95,35.91,6.17,52.61,10.9,26.2,7.42,52.09,15.96,80.24,29.51,45.22,21.77,94.39,55.12,148.78,76.41,16.94,6.6,33.93,11.91,50.66,16.03,62.32,15.62,123.11,14.85,180.62,6.06,7.24-1.11,14.47-2.35,21.72-3.7,65.86-12.3,133.08-34.19,206.97-48.3,18.04-3.42,36.69-6.27,55.59-8.31,66.99-7.31,136.86-4.42,192.22,19.65,24.77,10.82,45.12,24.67,63.56,39.2,30.18,23.77,55.11,49.5,88.08,70.43,7.06,4.51,14.47,8.75,22.22,12.76,72.43,37.36,173.45,55.12,271.9,56.24,5.29.06,10.58.08,15.87.06,103.56-.37,205.8-15.75,306.66-31.01"/>
    <path class="cls-22" d="m1.89,448.89c32.95-14.37,75.92-24.21,113.66-27.92,16.32-1.6,31.83-2.09,46.15-1.26,18.58,1.09,35.41,4.38,51.88,8.05,25.97,5.78,51.76,12.35,80.23,24.63,45.51,19.63,95.24,52.24,149.57,73.91,16.9,6.71,33.82,12.21,50.41,16.69,61.91,16.71,121.7,18.49,178.76,12.08,7.18-.81,14.36-1.75,21.57-2.8,65.46-9.6,132.85-29.07,206.86-41.92,18.07-3.12,36.75-5.73,55.65-7.63,67.02-6.8,136.84-4.48,192.48,17.59,24.9,9.92,45.48,22.64,64.18,35.88,30.6,21.68,55.96,44.93,89.18,63.77,7.11,4.07,14.56,7.88,22.35,11.49,72.81,33.59,173.82,49.65,272.34,50.53,5.3.05,10.59.06,15.88.04,103.63-.46,205.97-14.52,306.95-28.46"/>
    <path class="cls-9" d="m1.81,454.82c33.16-13.1,76.25-23.22,113.66-27.97,16.19-2.05,31.51-3.13,45.64-2.96,18.32.22,34.91,2.58,51.15,5.19,25.75,4.14,51.44,8.75,80.22,19.75,45.78,17.49,96.1,49.37,150.36,71.41,16.86,6.82,33.7,12.54,50.16,17.34,61.47,17.92,120.29,22.12,176.9,18.1,7.12-.51,14.26-1.15,21.42-1.91,65.06-6.9,132.63-23.95,206.74-35.54,18.1-2.81,36.8-5.19,55.72-6.94,67.04-6.28,136.82-4.53,192.74,15.52,25.02,9.02,45.85,20.62,64.79,32.57,31.03,19.59,56.81,40.36,90.28,57.12,7.16,3.62,14.66,7.01,22.48,10.22,73.19,29.81,174.2,44.17,272.78,44.82,5.3.04,10.6.04,15.89,0,103.7-.55,206.14-13.29,307.23-25.92"/>
    <path class="cls-32" d="m1.73,460.76c33.38-11.82,76.58-22.23,113.67-28.01,16.06-2.51,31.19-4.18,45.14-4.67,18.07-.64,34.43.78,50.42,2.33,25.54,2.49,51.1,5.15,80.21,14.86,46.05,15.36,96.95,46.49,151.16,68.91,16.83,6.93,33.59,12.87,49.91,17.99,61.03,19.13,118.89,25.75,175.04,24.13,7.07-.21,14.15-.55,21.27-1.01,64.65-4.21,132.41-18.83,206.63-29.17,18.13-2.5,36.85-4.65,55.79-6.26,67.06-5.77,136.8-4.58,193,13.46,25.14,8.12,46.22,18.59,65.41,29.26,31.46,17.5,57.69,35.72,91.37,50.47,7.22,3.16,14.75,6.14,22.62,8.94,73.58,26.04,174.57,38.69,273.22,39.11,5.3.02,10.6.02,15.9-.02,103.77-.64,206.3-12.06,307.52-23.37"/>
    <path class="cls-16" d="m1.66,466.7c33.59-10.54,76.9-21.23,113.67-28.06,15.93-2.96,30.87-5.21,44.63-6.37,17.81-1.5,33.95.08,49.7-.52,25.34-.96,50.76,1.56,80.2,9.98,46.31,13.25,97.8,43.62,151.95,66.42,16.79,7.03,33.47,13.21,49.66,18.64,60.58,20.34,117.48,29.39,173.19,30.15,7.01.09,14.04.05,21.11-.11,64.25-1.51,132.19-13.71,206.52-22.79,18.17-2.19,36.9-4.11,55.86-5.57,67.08-5.25,136.77-4.64,193.27,11.4,25.26,7.22,46.59,16.56,66.02,25.95,31.89,15.41,58.54,31.14,92.47,43.82,7.27,2.71,14.84,5.27,22.75,7.67,73.96,22.27,174.95,33.21,273.66,33.4,5.31.01,10.61,0,15.91-.04,103.84-.74,206.47-10.83,307.81-20.83"/>
    <path class="cls-37" d="m1.58,472.63c33.81-9.27,77.23-20.24,113.67-28.1,15.81-3.41,30.54-6.25,44.12-8.08,17.55-2.36,33.55-1.7,48.97-3.38,25.02-2.72,50.41-2.03,80.19,5.09,46.55,11.14,98.66,40.74,152.74,63.92,16.75,7.14,33.36,13.54,49.41,19.3,60.14,21.56,116.07,33.02,171.33,36.17,6.95.39,13.93.65,20.96.79,63.85,1.18,131.97-8.58,206.4-16.41,18.2-1.89,36.95-3.57,55.92-4.89,67.1-4.74,136.75-4.69,193.53,9.33,25.38,6.32,46.96,14.53,66.64,22.64,32.32,13.31,59.38,26.57,93.56,37.17,7.32,2.27,14.94,4.4,22.88,6.4,74.34,18.5,175.32,27.73,274.1,27.69,5.31,0,10.62-.03,15.92-.07,103.91-.83,206.64-9.6,308.09-18.29"/>
    <path class="cls-19" d="m1.5,478.57c34.02-7.99,77.55-19.25,113.67-28.15,15.68-3.86,30.22-7.29,43.62-9.78,17.29-3.22,32.99-4.68,48.24-6.23,24.97-2.54,50.07-5.61,80.18.21,46.8,9.04,99.51,37.87,153.53,61.42,16.71,7.25,33.24,13.88,49.16,19.95,59.7,22.77,114.67,36.66,169.47,42.19,6.89.69,13.82,1.25,20.81,1.68,63.44,3.88,131.74-3.46,206.29-10.03,18.23-1.58,37.01-3.03,55.99-4.2,67.13-4.22,136.73-4.75,193.79,7.27,25.5,5.42,47.33,12.5,67.25,19.33,32.75,11.22,60.23,22,94.66,30.52,7.37,1.82,15.03,3.53,23.01,5.12,74.73,14.73,175.7,22.26,274.54,21.98,5.31-.01,10.62-.05,15.93-.09,103.98-.92,206.8-8.37,308.38-15.74"/>
    <path class="cls-10" d="m1.42,484.51c34.23-6.71,77.88-18.26,113.67-28.19,15.55-4.32,29.9-8.33,43.11-11.49,17.04-4.08,32.52-6.52,47.51-9.09,24.78-4.24,49.71-9.18,80.17-4.67,47.04,6.96,100.36,34.99,154.32,58.92,16.68,7.36,33.13,14.21,48.91,20.6,59.26,23.99,113.26,40.29,167.61,48.21,6.84.99,13.71,1.85,20.65,2.58,63.04,6.58,131.52,1.66,206.18-3.65,18.27-1.27,37.06-2.49,56.06-3.52,67.15-3.71,136.71-4.8,194.05,5.2,25.62,4.53,47.7,10.47,67.87,16.01,33.19,9.13,61.07,17.42,95.75,23.86,7.42,1.38,15.12,2.66,23.15,3.85,75.11,10.96,176.07,16.78,274.98,16.27,5.32-.03,10.63-.07,15.94-.12,104.05-1.02,206.97-7.14,308.67-13.2"/>
    <path class="cls-3" d="m1.34,490.44c34.45-5.44,78.2-17.28,113.67-28.24,15.42-4.77,29.58-9.36,42.6-13.2,16.78-4.93,32.05-8.37,46.78-11.94,24.6-5.96,49.36-12.74,80.16-9.56,47.27,4.89,101.21,32.12,155.11,56.42,16.64,7.47,33.01,14.55,48.66,21.25,58.81,25.21,111.85,43.92,165.75,54.23,6.78,1.29,13.6,2.45,20.5,3.48,62.64,9.27,131.3,6.78,206.06,2.73,18.3-.96,37.11-1.95,56.13-2.83,67.17-3.19,136.69-4.85,194.31,3.14,25.74,3.63,48.07,8.43,68.48,12.7,33.62,7.03,61.91,12.85,96.85,17.21,7.46.93,15.22,1.79,23.28,2.57,75.49,7.19,176.45,11.3,275.42,10.56,5.32-.04,10.64-.09,15.95-.14,104.12-1.11,207.14-5.92,308.95-10.65"/>
    <path class="cls-14" d="m1.26,496.38c34.66-4.16,78.53-16.29,113.67-28.29,15.3-5.22,29.25-10.4,42.1-14.9,16.52-5.79,31.57-10.23,46.05-14.8,24.41-7.7,49.01-16.3,80.15-14.44,47.51,2.83,102.07,29.24,155.9,53.92,16.6,7.57,32.9,14.89,48.41,21.91,58.37,26.43,110.44,47.56,163.89,60.26,6.72,1.59,13.5,3.05,20.35,4.37,62.23,11.97,131.08,11.9,205.95,9.11,18.33-.66,37.16-1.41,56.19-2.15,67.19-2.67,136.66-4.91,194.57,1.07,25.86,2.73,48.44,6.4,69.1,9.39,34.06,4.93,62.76,8.28,97.94,10.56,7.51.49,15.31.92,23.41,1.3,75.88,3.42,176.82,5.82,275.86,4.85,5.32-.05,10.64-.11,15.96-.17,104.19-1.2,207.3-4.69,309.24-8.11"/>
    <path class="cls-6" d="m1.18,502.32c34.88-2.88,78.85-15.3,113.67-28.33,15.17-5.68,28.93-11.43,41.59-16.61,16.26-6.64,31.09-12.1,45.33-17.65,24.21-9.45,48.71-21.32,80.14-19.32,47.65,3.03,102.92,26.37,156.69,51.43,16.56,7.68,32.78,15.22,48.16,22.56,57.93,27.65,109.04,51.19,162.03,66.28,6.67,1.89,13.39,3.65,20.2,5.27,61.83,14.66,130.85,17.02,205.83,15.49,18.36-.35,37.22-.87,56.26-1.46,67.21-2.16,136.64-4.96,194.83-.99,25.98,1.83,48.81,4.37,69.71,6.08,34.49,2.83,63.6,3.71,99.04,3.91,7.56.04,15.4.05,23.55.03,76.26-.35,177.2.35,276.3-.86,5.33-.06,10.65-.13,15.97-.2,104.26-1.3,207.47-3.46,309.53-5.57"/>
    <path class="cls-23" d="m1.1,508.25c35.09-1.61,79.18-14.32,113.67-28.38,15.04-6.13,28.61-12.47,41.09-18.31,16.01-7.5,30.6-13.97,44.6-20.51,24.01-11.22,48.3-23.38,80.13-24.21,47.98-1.24,103.77,23.49,157.49,48.93,16.53,7.79,32.66,15.56,47.91,23.21,57.48,28.87,107.63,54.82,160.18,72.3,6.61,2.19,13.28,4.25,20.04,6.17,61.43,17.36,130.63,22.15,205.72,21.86,18.4-.04,37.27-.33,56.33-.78,67.24-1.64,136.62-5.02,195.09-3.05,26.1.93,49.19,2.33,70.33,2.77,34.93.72,64.44-.86,100.13-2.74,7.61-.4,15.49-.82,23.68-1.25,76.64-4.12,177.57-5.13,276.74-6.57,5.33-.08,10.66-.15,15.98-.22,104.33-1.39,207.64-2.23,309.81-3.02"/>
    <path class="cls-21" d="m1.03,514.19c35.3-.33,79.5-13.33,113.67-28.42,14.91-6.59,28.29-13.5,40.58-20.02,15.75-8.35,30.11-15.85,43.87-23.36,23.79-12.99,47.95-26.91,80.12-29.09,48.22-3.27,104.63,20.62,158.28,46.43,16.49,7.9,32.55,15.9,47.65,23.87,57.04,30.09,106.22,58.46,158.32,78.32,6.55,2.49,13.17,4.85,19.89,7.06,61.02,20.05,130.41,27.27,205.61,28.24,18.43.27,37.32.21,56.4-.09,67.26-1.13,136.6-5.07,195.35-5.12,26.22.03,49.56.29,70.94-.55,35.36-1.38,65.29-5.42,101.23-9.39,7.66-.85,15.59-1.69,23.81-2.52,77.03-7.89,177.95-10.61,277.18-12.28,5.33-.09,10.66-.17,15.99-.25,104.41-1.48,207.8-1,310.1-.48"/>
    <path class="cls-31" d="m.95,520.13c35.52.95,79.83-12.35,113.67-28.47,14.78-7.04,27.97-14.53,40.07-21.73,15.5-9.2,29.61-17.73,43.14-26.22,23.56-14.77,47.6-30.44,80.1-33.98,48.47-5.28,105.48,17.74,159.07,43.93,16.45,8.01,32.43,16.23,47.4,24.52,56.59,31.32,104.82,62.09,156.46,84.34,6.49,2.79,13.06,5.45,19.74,7.96,60.62,22.75,130.19,32.39,205.49,34.62,18.46.57,37.37.75,56.46.59,67.28-.61,136.57-5.12,195.61-7.18,26.34-.87,49.93-1.75,71.56-3.86,35.8-3.49,66.13-9.99,102.32-16.04,7.71-1.29,15.68-2.56,23.94-3.79,77.41-11.67,178.32-16.09,277.62-17.99,5.34-.1,10.67-.19,16-.27,104.48-1.57,207.97.23,310.39,2.06"/>
    <path class="cls-8" d="m.87,526.06c35.73,2.22,80.15-11.37,113.67-28.52,14.65-7.5,27.65-15.57,39.57-23.43,15.24-10.06,29.1-19.62,42.41-29.07,23.31-16.56,47.26-33.96,80.09-38.86,48.72-7.28,106.33,14.87,159.86,41.43,16.42,8.11,32.31,16.57,47.15,25.17,56.14,32.54,103.41,65.73,154.6,90.37,6.44,3.09,12.95,6.05,19.59,8.86,60.22,25.45,129.97,37.51,205.38,41,18.49.88,37.42,1.29,56.53,1.28,67.3-.1,136.55-5.18,195.87-9.25,26.46-1.77,50.3-3.79,72.17-7.17,36.23-5.6,66.98-14.55,103.42-22.7,7.76-1.73,15.77-3.43,24.08-5.07,77.79-15.44,178.69-21.57,278.06-23.7,5.34-.11,10.68-.21,16.01-.3,104.55-1.67,208.14,1.46,310.67,4.61"/>
    <path class="cls-30" d="m.79,532c35.95,3.5,80.47-10.38,113.67-28.56,14.52-7.95,27.33-16.6,39.06-25.14,14.99-10.91,28.59-21.51,41.68-31.93,23.06-18.35,46.92-37.47,80.08-43.74,48.98-9.27,107.18,11.99,160.65,38.94,16.38,8.22,32.2,16.91,46.9,25.82,55.69,33.77,102,69.36,152.74,96.39,6.38,3.39,12.84,6.65,19.43,9.75,59.81,28.14,129.74,42.63,205.27,47.38,18.53,1.19,37.48,1.83,56.6,1.96,67.32.42,136.53-5.23,196.13-11.31,26.58-2.67,50.67-5.83,72.78-10.48,36.66-7.71,67.85-19.05,104.51-29.35,7.81-2.16,15.87-4.3,24.21-6.34,78.18-19.21,179.07-27.04,278.5-29.41,5.34-.13,10.68-.24,16.02-.33,104.62-1.76,208.3,2.69,310.96,7.15"/>
    <path class="cls-15" d="m.71,537.94c36.16,4.78,80.79-9.4,113.67-28.61,14.4-8.41,27.01-17.63,38.55-26.84,14.74-11.76,28.07-23.39,40.96-34.79,22.79-20.14,46.59-40.97,80.07-48.63,49.25-11.26,108.04,9.12,161.44,36.44,16.34,8.33,32.08,17.25,46.65,26.48,55.25,35,100.59,72.99,150.88,102.41,6.32,3.69,12.74,7.25,19.28,10.65,59.41,30.84,129.52,47.76,205.15,53.76,18.56,1.49,37.53,2.37,56.67,2.65,67.34.93,136.51-5.28,196.39-13.37,26.7-3.56,51.04-7.87,73.4-13.79,37.09-9.83,68.69-23.62,105.61-36,7.86-2.61,15.96-5.17,24.34-7.61,78.56-22.98,179.44-32.52,278.94-35.12,5.35-.14,10.69-.26,16.03-.35,104.69-1.85,208.47,3.92,311.25,9.7"/>
    <path class="cls-17" d="m.63,543.87c36.37,6.05,81.08-8.48,113.67-28.65,14.25-8.89,26.69-18.66,38.05-28.55,14.49-12.61,27.54-25.28,40.23-37.64,22.51-21.93,46.26-44.47,80.06-53.51,49.52-13.24,108.89,6.24,162.23,33.94,16.3,8.44,31.94,17.61,46.4,27.13,54.73,36.33,99.19,76.63,149.02,108.43,6.26,3.99,12.63,7.85,19.13,11.55,59.01,33.53,129.3,52.88,205.04,60.14,18.59,1.8,37.58,2.91,56.73,3.33,67.37,1.45,136.49-5.34,196.65-15.44,26.82-4.46,51.41-9.91,74.01-17.11,37.52-11.94,69.54-28.19,106.7-42.65,7.91-3.05,16.05-6.04,24.48-8.89,78.94-26.75,179.82-38,279.38-40.83,5.35-.15,10.7-.28,16.04-.38,104.76-1.95,208.64,5.15,311.53,12.24"/>
    <path class="cls-24" d="m.55,549.81c36.59,7.33,81.4-7.5,113.67-28.7,14.12-9.35,26.37-19.69,37.54-30.25,14.24-13.46,27.01-27.16,39.5-40.5,22.22-23.72,45.94-47.97,80.05-58.4,49.81-15.22,109.74,3.36,163.02,31.44,16.27,8.55,31.83,17.95,46.15,27.78,54.28,37.55,97.78,80.26,147.16,114.45,6.21,4.29,12.52,8.45,18.98,12.45,58.6,36.23,129.08,58,204.92,66.52,18.62,2.11,37.63,3.45,56.8,4.02,67.39,1.96,136.46-5.39,196.92-17.5,26.94-5.36,51.77-11.95,74.63-20.42,37.95-14.05,70.39-32.76,107.8-49.3,7.96-3.5,16.15-6.91,24.61-10.16,79.33-30.52,180.19-43.48,279.82-46.54,5.35-.16,10.7-.3,16.05-.4,104.83-2.04,208.8,6.38,311.82,14.78"/>
    <path class="cls-12" d="m.47,555.75c36.8,8.61,81.72-6.51,113.67-28.74,13.99-9.8,26.06-20.72,37.04-31.96,13.99-14.31,26.47-29.04,38.77-43.35,21.92-25.5,45.62-51.47,80.04-63.28,50.1-17.19,110.6.49,163.81,28.94,16.23,8.65,31.71,18.28,45.9,28.44,53.83,38.77,96.37,83.89,145.31,120.47,6.15,4.59,12.41,9.05,18.82,13.34,58.2,38.93,128.86,63.12,204.81,72.9,18.66,2.42,37.68,3.99,56.87,4.7,67.41,2.48,136.44-5.45,197.18-19.57,27.06-6.26,52.12-14.04,75.24-23.73,38.35-16.24,71.24-37.33,108.89-55.95,8.01-3.94,16.24-7.79,24.74-11.43,79.71-34.29,180.57-48.95,280.26-52.25,5.36-.18,10.71-.32,16.06-.43,104.9-2.13,208.97,7.61,312.11,17.33"/>
    <path class="cls-33" d="m.39,561.68c37.02,9.88,82.04-5.52,113.67-28.79,13.86-10.25,25.76-21.74,36.53-33.67,13.77-15.14,25.93-30.92,38.04-46.21,21.62-27.28,45.31-54.96,80.03-68.16,50.4-19.16,111.45-2.39,164.61,26.44,16.19,8.76,31.59,18.62,45.65,29.09,53.39,39.99,94.97,87.53,143.45,126.5,6.09,4.89,12.3,9.65,18.67,14.24,57.8,41.62,128.63,68.24,204.7,79.27,18.69,2.72,37.74,4.53,56.94,5.39,67.43,2.99,136.42-5.5,197.44-21.63,27.19-7.16,52.49-16.07,75.86-27.04,38.77-18.34,72.09-41.9,109.99-62.6,8.07-4.39,16.33-8.66,24.87-12.71,80.09-38.06,180.94-54.43,280.7-57.96,5.36-.19,10.72-.34,16.07-.45,104.97-2.23,209.14,8.83,312.39,19.87"/>
    <path class="cls-29" d="m.32,567.62c37.23,11.16,82.37-4.53,113.67-28.84,13.73-10.71,25.44-22.77,36.02-35.37,13.51-16,25.38-32.8,37.31-49.06,21.31-29.05,45-58.45,80.02-73.05,50.7-21.13,112.3-5.26,165.4,23.95,16.15,8.87,31.48,18.95,45.4,29.74,52.94,41.21,93.56,91.16,141.59,132.52,6.03,5.19,12.19,10.25,18.52,15.14,57.39,44.32,128.41,73.37,204.58,85.65,18.72,3.03,37.79,5.07,57,6.07,67.45,3.51,136.4-5.55,197.7-23.7,27.31-8.06,52.85-18.11,76.47-30.35,39.2-20.44,72.94-46.47,111.09-69.26,8.12-4.83,16.43-9.53,25.01-13.98,80.47-41.83,181.32-59.91,281.14-63.67,5.36-.2,10.73-.36,16.08-.48,105.04-2.32,209.3,10.06,312.68,22.42"/>
    <path class="cls-11" d="m.24,573.56c37.44,12.44,82.69-3.54,113.67-28.88,13.6-11.16,25.13-23.81,35.52-37.08,13.26-16.85,24.84-34.67,36.59-51.92,20.99-30.82,44.7-61.94,80.01-77.93,51.02-23.1,113.16-8.14,166.19,21.45,16.12,8.98,31.36,19.29,45.15,30.39,52.49,42.42,92.15,94.8,139.73,138.54,5.98,5.49,12.08,10.85,18.37,16.03,56.99,47.01,128.19,78.49,204.47,92.03,18.75,3.34,37.84,5.6,57.07,6.76,67.48,4.02,136.37-5.61,197.96-25.76,27.43-8.96,53.22-20.14,77.09-33.67,39.63-22.54,73.79-51.04,112.18-75.91,8.17-5.28,16.52-10.4,25.14-15.25,80.86-45.6,181.69-65.39,281.58-69.38,5.37-.21,10.73-.38,16.09-.51,105.11-2.41,209.47,11.29,312.97,24.96"/>
    <path class="cls-27" d="m.16,579.49c37.66,13.71,83.01-2.56,113.67-28.93,13.47-11.61,24.81-24.85,35.01-38.78,13.01-17.71,24.29-36.54,35.86-54.77,20.68-32.59,44.4-65.43,80-82.81,51.34-25.07,114.01-11.01,166.98,18.95,16.08,9.09,31.24,19.63,44.9,31.05,52.05,43.64,90.75,98.43,137.87,144.56,5.92,5.79,11.98,11.45,18.21,16.93,56.59,49.71,127.97,83.61,204.36,98.41,18.79,3.65,37.89,6.14,57.14,7.44,67.5,4.54,136.35-5.66,198.22-27.82,27.55-9.86,53.59-22.18,77.7-36.98,40.05-24.64,74.64-55.61,113.28-82.56,8.22-5.72,16.61-11.27,25.27-16.53,81.24-49.37,182.07-70.87,282.02-75.09,5.37-.23,10.74-.4,16.1-.53,105.18-2.5,209.64,12.52,313.25,27.5"/>
    <path class="cls-13" d="m.08,585.43c37.87,14.99,83.33-1.57,113.67-28.97,13.34-12.07,24.49-25.88,34.5-40.49,12.75-18.57,23.74-38.41,35.13-57.63,20.36-34.35,44.15-68.86,79.99-87.7,51.71-26.95,114.86-13.89,167.77,16.45,16.04,9.19,31.13,19.96,44.64,31.7,51.6,44.86,89.34,102.06,136.01,150.58,5.86,6.09,11.87,12.05,18.06,17.83,56.18,52.4,127.74,88.73,204.24,104.79,18.82,3.95,37.95,6.68,57.21,8.13,67.52,5.05,136.33-5.72,198.48-29.89,27.67-10.75,53.95-24.21,78.32-40.29,40.48-26.74,75.49-60.18,114.37-89.21,8.27-6.17,16.71-12.14,25.41-17.8,81.62-53.15,182.44-76.34,282.46-80.8,5.37-.24,10.75-.42,16.11-.56,105.25-2.6,209.8,13.75,313.54,30.05"/>
    <path class="cls-18" d="m0,591.37c38.09,16.27,83.66-.58,113.67-29.02,30.02-28.44,48.37-66.57,68.4-102.68,20.03-36.11,43.82-72.41,79.98-92.58,67.74-37.79,155.38-5.56,212.96,46.3,57.58,51.87,96.94,120.88,152.06,175.33,69.51,68.66,163.8,111.94,261.4,119.98s197.76-19.21,277.67-75.55c49.6-34.97,91.14-80.33,141.01-114.93,86.41-59.97,193.7-84.41,299.02-87.1,105.32-2.69,209.97,14.98,313.83,32.59"/>
  </g>
  <text class="cls-5" transform="translate(678.46 222.98)"><tspan x="0" y="0">defi</tspan></text>
  <g>
    <text class="cls-26" transform="translate(915.1 222.98)"><tspan x="0" y="0">charts</tspan></text>
    <g>
      <text class="cls-39" transform="translate(923.1 226.98)"><tspan x="0" y="0">charts</tspan></text>
      <text class="cls-39" transform="translate(922.9 226.88)"><tspan x="0" y="0">charts</tspan></text>
      <text class="cls-39" transform="translate(922.7 226.78)"><tspan x="0" y="0">charts</tspan></text>
      <text class="cls-39" transform="translate(922.5 226.68)"><tspan x="0" y="0">charts</tspan></text>
      <text class="cls-39" transform="translate(922.3 226.58)"><tspan x="0" y="0">charts</tspan></text>
      <text class="cls-39" transform="translate(922.1 226.48)"><tspan x="0" y="0">charts</tspan></text>
      <text class="cls-39" transform="translate(921.9 226.38)"><tspan x="0" y="0">charts</tspan></text>
      <text class="cls-39" transform="translate(921.7 226.28)"><tspan x="0" y="0">charts</tspan></text>
      <text class="cls-39" transform="translate(921.5 226.18)"><tspan x="0" y="0">charts</tspan></text>
      <text class="cls-39" transform="translate(921.3 226.08)"><tspan x="0" y="0">charts</tspan></text>
      <text class="cls-39" transform="translate(921.1 225.98)"><tspan x="0" y="0">charts</tspan></text>
      <text class="cls-39" transform="translate(920.9 225.88)"><tspan x="0" y="0">charts</tspan></text>
      <text class="cls-39" transform="translate(920.7 225.78)"><tspan x="0" y="0">charts</tspan></text>
      <text class="cls-39" transform="translate(920.5 225.68)"><tspan x="0" y="0">charts</tspan></text>
      <text class="cls-39" transform="translate(920.3 225.58)"><tspan x="0" y="0">charts</tspan></text>
      <text class="cls-39" transform="translate(920.1 225.48)"><tspan x="0" y="0">charts</tspan></text>
      <text class="cls-39" transform="translate(919.9 225.38)"><tspan x="0" y="0">charts</tspan></text>
      <text class="cls-39" transform="translate(919.7 225.28)"><tspan x="0" y="0">charts</tspan></text>
      <text class="cls-39" transform="translate(919.5 225.18)"><tspan x="0" y="0">charts</tspan></text>
      <text class="cls-39" transform="translate(919.3 225.08)"><tspan x="0" y="0">charts</tspan></text>
      <text class="cls-39" transform="translate(919.1 224.98)"><tspan x="0" y="0">charts</tspan></text>
      <text class="cls-39" transform="translate(918.9 224.88)"><tspan x="0" y="0">charts</tspan></text>
      <text class="cls-39" transform="translate(918.7 224.78)"><tspan x="0" y="0">charts</tspan></text>
      <text class="cls-39" transform="translate(918.5 224.68)"><tspan x="0" y="0">charts</tspan></text>
      <text class="cls-39" transform="translate(918.3 224.58)"><tspan x="0" y="0">charts</tspan></text>
      <text class="cls-39" transform="translate(918.1 224.48)"><tspan x="0" y="0">charts</tspan></text>
      <text class="cls-39" transform="translate(917.9 224.38)"><tspan x="0" y="0">charts</tspan></text>
      <text class="cls-39" transform="translate(917.7 224.28)"><tspan x="0" y="0">charts</tspan></text>
      <text class="cls-39" transform="translate(917.5 224.18)"><tspan x="0" y="0">charts</tspan></text>
      <text class="cls-39" transform="translate(917.3 224.08)"><tspan x="0" y="0">charts</tspan></text>
      <text class="cls-39" transform="translate(917.1 223.98)"><tspan x="0" y="0">charts</tspan></text>
      <text class="cls-39" transform="translate(916.9 223.88)"><tspan x="0" y="0">charts</tspan></text>
      <text class="cls-39" transform="translate(916.7 223.78)"><tspan x="0" y="0">charts</tspan></text>
      <text class="cls-39" transform="translate(916.5 223.68)"><tspan x="0" y="0">charts</tspan></text>
      <text class="cls-39" transform="translate(916.3 223.58)"><tspan x="0" y="0">charts</tspan></text>
      <text class="cls-39" transform="translate(916.1 223.48)"><tspan x="0" y="0">charts</tspan></text>
      <text class="cls-39" transform="translate(915.9 223.38)"><tspan x="0" y="0">charts</tspan></text>
      <text class="cls-39" transform="translate(915.7 223.28)"><tspan x="0" y="0">charts</tspan></text>
      <text class="cls-39" transform="translate(915.5 223.18)"><tspan x="0" y="0">charts</tspan></text>
      <text class="cls-39" transform="translate(915.3 223.08)"><tspan x="0" y="0">charts</tspan></text>
      <text class="cls-39" transform="translate(915.1 222.98)"><tspan x="0" y="0">charts</tspan></text>
    </g>
    <text class="cls-38" transform="translate(915.1 222.98)"><tspan x="0" y="0">charts</tspan></text>
    <text class="cls-28" transform="translate(915.1 222.98)"><tspan x="0" y="0">charts</tspan></text>
  </g>
</svg>