<?xml version="1.0" encoding="UTF-8"?>
<svg id="Layer_1" data-name="Layer 1" xmlns="http://www.w3.org/2000/svg" xmlns:xlink="http://www.w3.org/1999/xlink" viewBox="0 0 1920 1080">
  <defs>
    <style>
      .cls-1 {
        fill: url(#linear-gradient);
      }
    </style>
    <linearGradient id="linear-gradient" x1="960.01" y1="-2.96" x2="960.01" y2="84.5" gradientTransform="translate(0 1080) scale(1 -1)" gradientUnits="userSpaceOnUse">
      <stop offset="0" stop-color="#7cbded"/>
      <stop offset="1" stop-color="#ff7bac"/>
    </linearGradient>
  </defs>
  <path class="cls-1" d="m-.5,1079.5c79.47-12.92,158.99-25.44,238.52-37.94l239.03-34.42c19.93-2.99,40.08-5.27,60.18-6.9,20.12-1.68,40.26-2.8,60.42-3.58,20.16-.77,40.32-1.12,60.49-1.15h603.74c20.17.04,40.33.39,60.49,1.16,20.16.78,40.3,1.9,60.42,3.58,20.1,1.63,40.25,3.91,60.18,6.9l239.02,34.45c79.52,12.54,159.05,25.04,238.52,37.92-79.87-10.09-159.7-20.56-239.52-30.99l-239.02-34.45c-19.87-2.98-39.74-5.22-59.76-6.85-19.99-1.67-40.04-2.79-60.11-3.56-20.06-.76-40.15-1.11-60.23-1.15h-603.72c-20.08.04-40.17.39-60.23,1.15-20.06.77-40.11,1.89-60.11,3.56-20.02,1.63-39.89,3.87-59.76,6.85l-239.02,34.48c-79.82,10.47-159.64,20.92-239.53,30.96v-.02h0Z"/>
</svg>