<?xml version="1.0" encoding="UTF-8"?>
<svg id="Layer_1" data-name="Layer 1" xmlns="http://www.w3.org/2000/svg" xmlns:xlink="http://www.w3.org/1999/xlink" viewBox="0 0 1920 1080">
  <defs>
    <style>
      .cls-1 {
        stroke: url(#linear-gradient-9);
      }

      .cls-1, .cls-2, .cls-3, .cls-4, .cls-5, .cls-6, .cls-7, .cls-8, .cls-9, .cls-10, .cls-11, .cls-12, .cls-13, .cls-14, .cls-15 {
        stroke-miterlimit: 10;
      }

      .cls-1, .cls-2, .cls-3, .cls-4, .cls-5, .cls-6, .cls-7, .cls-9, .cls-10, .cls-11, .cls-12, .cls-16, .cls-14, .cls-15 {
        fill: none;
      }

      .cls-1, .cls-4, .cls-5, .cls-6, .cls-9, .cls-11, .cls-12, .cls-14 {
        stroke-dasharray: 0 0 0 0 0 0 10 2 10 12 4 8;
        stroke-width: 3px;
      }

      .cls-2 {
        stroke: url(#linear-gradient-10);
      }

      .cls-2, .cls-3, .cls-7, .cls-10 {
        stroke-width: 2px;
      }

      .cls-3 {
        stroke: url(#linear-gradient-13);
      }

      .cls-4 {
        stroke: url(#linear-gradient-4);
      }

      .cls-5 {
        stroke: url(#linear-gradient-3);
      }

      .cls-6 {
        stroke: url(#linear-gradient-7);
      }

      .cls-7 {
        stroke: url(#linear-gradient-11);
      }

      .cls-8 {
        fill: #ff7bac;
      }

      .cls-8, .cls-13 {
        stroke: #fff;
      }

      .cls-9 {
        stroke: url(#linear-gradient-2);
      }

      .cls-10 {
        stroke: url(#linear-gradient-12);
      }

      .cls-11 {
        stroke: url(#linear-gradient-8);
      }

      .cls-12 {
        stroke: url(#linear-gradient-6);
      }

      .cls-16 {
        stroke: #fd7cad;
        stroke-miterlimit: 10;
      }

      .cls-16, .cls-15 {
        stroke-width: 4px;
      }

      .cls-17 {
        fill: url(#linear-gradient);
      }

      .cls-13 {
        fill: #7cbded;
      }

      .cls-14 {
        stroke: url(#linear-gradient-5);
      }

      .cls-15 {
        stroke: #7cbcec;
      }
    </style>
    <linearGradient id="linear-gradient" x1="960.01" y1="1082.96" x2="960.01" y2="995.5" gradientUnits="userSpaceOnUse">
      <stop offset="0" stop-color="#7cbded"/>
      <stop offset="1" stop-color="#ff7bac"/>
    </linearGradient>
    <linearGradient id="linear-gradient-2" x1="860.63" y1="879.48" x2="851.73" y2="846.25" xlink:href="#linear-gradient"/>
    <linearGradient id="linear-gradient-3" x1="926.22" y1="945.02" x2="917.35" y2="911.92" xlink:href="#linear-gradient"/>
    <linearGradient id="linear-gradient-4" x1="1066.29" y1="811.57" x2="1056.22" y2="774" xlink:href="#linear-gradient"/>
    <linearGradient id="linear-gradient-5" x1="997.54" y1="742.08" x2="988.01" y2="706.52" xlink:href="#linear-gradient"/>
    <linearGradient id="linear-gradient-6" x1="995.43" y1="938.34" x2="989.67" y2="916.83" xlink:href="#linear-gradient"/>
    <linearGradient id="linear-gradient-7" x1="1063.09" y1="871.44" x2="1057.01" y2="848.73" xlink:href="#linear-gradient"/>
    <linearGradient id="linear-gradient-8" x1="856.84" y1="802.85" x2="850.62" y2="779.64" xlink:href="#linear-gradient"/>
    <linearGradient id="linear-gradient-9" x1="924.27" y1="734.2" x2="918.57" y2="712.92" xlink:href="#linear-gradient"/>
    <linearGradient id="linear-gradient-10" x1="1087.32" y1="361.31" x2="1065.76" y2="323.98" gradientTransform="translate(-14.37 278.77) rotate(45) scale(1 -1)" gradientUnits="userSpaceOnUse">
      <stop offset="0" stop-color="#ff7bac"/>
      <stop offset="1" stop-color="#7cbded"/>
    </linearGradient>
    <linearGradient id="linear-gradient-11" x1="1087.05" y1="275.56" x2="1066.04" y2="239.17" gradientTransform="translate(-14.37 278.77) rotate(45) scale(1 -1)" gradientUnits="userSpaceOnUse">
      <stop offset="0" stop-color="#7cbded"/>
      <stop offset="1" stop-color="#ff7bac"/>
    </linearGradient>
    <linearGradient id="linear-gradient-12" x1="1090.46" y1="384.08" x2="1062.65" y2="335.9" gradientTransform="translate(1488.57 -163.33) rotate(135) scale(1 -1)" xlink:href="#linear-gradient-10"/>
    <linearGradient id="linear-gradient-13" x1="1087.84" y1="303.28" x2="1065.27" y2="264.19" gradientTransform="translate(1488.57 -163.33) rotate(135) scale(1 -1)" xlink:href="#linear-gradient"/>
  </defs>
  <path class="cls-17" d="m-.5,1079.5c79.47-12.92,158.99-25.44,238.52-37.94l239.03-34.42c19.93-2.99,40.08-5.27,60.18-6.9,20.12-1.68,40.26-2.8,60.42-3.58,20.16-.77,40.32-1.12,60.49-1.15h603.74c20.17.04,40.33.39,60.49,1.16,20.16.78,40.3,1.9,60.42,3.58,20.1,1.63,40.25,3.91,60.18,6.9l239.02,34.45c79.52,12.54,159.05,25.04,238.52,37.92-79.87-10.09-159.7-20.56-239.52-30.99l-239.02-34.45c-19.87-2.98-39.74-5.22-59.76-6.85-19.99-1.67-40.04-2.79-60.11-3.56-20.06-.76-40.15-1.11-60.23-1.15h-603.72c-20.08.04-40.17.39-60.23,1.15-20.06.77-40.11,1.89-60.11,3.56-20.02,1.63-39.89,3.87-59.76,6.85l-239.02,34.48c-79.82,10.47-159.64,20.92-239.53,30.96v-.02h0Z"/>
  <line class="cls-9" x1="869.61" y1="876.3" x2="842.75" y2="849.44"/>
  <line class="cls-5" x1="935.16" y1="941.85" x2="908.41" y2="915.1"/>
  <line class="cls-4" x1="1076.52" y1="808.05" x2="1045.99" y2="777.52"/>
  <line class="cls-14" x1="1007.19" y1="738.72" x2="978.36" y2="709.89"/>
  <line class="cls-12" x1="1006.46" y1="913.68" x2="978.64" y2="941.5"/>
  <line class="cls-6" x1="1074.84" y1="845.3" x2="1045.26" y2="874.88"/>
  <line class="cls-11" x1="868.88" y1="776.1" x2="838.58" y2="806.4"/>
  <line class="cls-1" x1="935.16" y1="709.82" x2="907.68" y2="737.3"/>
  <line class="cls-2" x1="971.96" y1="814.89" x2="1006.34" y2="780.52"/>
  <line class="cls-7" x1="912.1" y1="874.76" x2="945.6" y2="841.27"/>
  <circle class="cls-15" cx="956.78" cy="695.13" r="26.14"/>
  <circle class="cls-15" cx="1093.97" cy="827.5" r="26.14"/>
  <circle class="cls-15" cx="957.02" cy="956.2" r="26.14"/>
  <circle class="cls-15" cx="826.03" cy="829.34" r="26.14"/>
  <rect class="cls-16" x="997.23" y="732.6" width="54.88" height="54.88" rx="12" ry="12" transform="translate(-237.31 947.16) rotate(-45)"/>
  <rect class="cls-16" x="864.18" y="865.65" width="54.88" height="54.88" rx="12" ry="12" transform="translate(-370.36 892.05) rotate(-45)"/>
  <line class="cls-10" x1="959.58" y1="830.15" x2="1004.19" y2="874.76"/>
  <line class="cls-3" x1="909.95" y1="780.52" x2="945.98" y2="816.56"/>
  <rect class="cls-16" x="997.23" y="865.65" width="54.88" height="54.88" rx="12" ry="12" transform="translate(-331.39 986.13) rotate(-45)"/>
  <rect class="cls-16" x="864.18" y="732.59" width="54.88" height="54.88" rx="12" ry="12" transform="translate(-276.28 853.08) rotate(-45)"/>
  <g>
    <path class="cls-13" d="m966.03,831.23v-8.14c1.87,0,2.8-.71,2.8-2.14,0-1.3-.71-1.96-2.14-1.96s-2.16.9-2.16,2.68v11.06c0,5.1-3.64,7.85-8.74,7.85h0c0-3.15,1.1-5.04,1.1-8.18,0-3.3-1.6-6.47-1.6-9.77-.1-1.06-.05-2.85.6-4.93.4-1.28,1.09-2.48,2.06-3.58,1.09-1.23,2.46-2.2,4.09-2.91,1.64-.71,3.33-1.07,5.07-1.07,3.15,0,5.8,1.06,7.95,3.18,2.15,2.12,3.22,4.75,3.22,7.89s-.96,5.52-2.89,7.42c-1.76,1.74-4.41,2.62-7.96,2.62l-1.41-.02h0Z"/>
    <path class="cls-8" d="m941.71,810.14h11.28c6.69,0,10.03,2.63,10.03,7.89,0,2.61-1.15,4.78-3.44,6.51,3.32,1.44,4.98,4.01,4.98,7.71,0,2.84-.98,5.1-2.93,6.78-.96.8-1.98,1.36-3.07,1.68s-2.56.48-4.41.48h-1.75v-7.99h1.57c.92,0,1.58-.12,1.96-.35.38-.24.57-.65.57-1.24,0-1-.77-1.5-2.32-1.5h-1.77v-8.28c1.7,0,2.55-.58,2.55-1.75,0-1.08-.77-1.62-2.3-1.62h-1.71v22.73h-9.24v-31.05h0Z"/>
  </g>
</svg>