<?xml version="1.0" encoding="UTF-8"?>
<svg id="Layer_1" data-name="Layer 1" xmlns="http://www.w3.org/2000/svg" xmlns:xlink="http://www.w3.org/1999/xlink" viewBox="0 0 1920 1080">
  <defs>
    <style>
      .cls-1 {
        stroke: url(#linear-gradient);
      }

      .cls-1, .cls-2 {
        fill: none;
        stroke-width: 3px;
      }

      .cls-2 {
        stroke: url(#linear-gradient-2);
      }
    </style>
    <linearGradient id="linear-gradient" x1="8" y1="542.14" x2="80.82" y2="542.14" gradientUnits="userSpaceOnUse">
      <stop offset="0" stop-color="#7cbded"/>
      <stop offset="1" stop-color="#ff7bac"/>
    </linearGradient>
    <linearGradient id="linear-gradient-2" x1="1839.18" y1="542.14" x2="1911.99" y2="542.14" gradientUnits="userSpaceOnUse">
      <stop offset="0" stop-color="#ff7bac"/>
      <stop offset="1" stop-color="#7cbded"/>
    </linearGradient>
  </defs>
  <g>
    <path class="cls-1" d="m30.52,260.17v16.19H12.04v-47.39h18.48v16.19h27.75v-16.19h18.51v47.39h-18.51v-16.19h-27.75Z"/>
    <path class="cls-1" d="m16.68,301.25h55.47v12.13h-36.99v6.07h36.99v10.97h-36.99v6.07h36.99v12.17H16.68v-47.39Z"/>
    <path class="cls-1" d="m33.42,373.48h21.97l25.42,47.39h-20.81l-3.74-8.11h-23.73l-3.74,8.11H8l25.42-47.39Zm4.48,27.72h13.01l-6.49-14-6.52,14Z"/>
    <path class="cls-1" d="m54.21,445.7c13.01-.18,22.67,10.76,22.57,23.7.11,12.87-9.56,23.87-22.57,23.7H12.04v-47.39h42.17Zm-3.46,15.02h-20.24v17.35h20.24c4.8,0,7.51-3.91,7.51-8.67s-2.72-8.67-7.51-8.67Z"/>
    <path class="cls-1" d="m35.15,517.86v32.37h36.99v15.02H16.68v-47.39h18.48Z"/>
    <path class="cls-1" d="m53.65,590.08v47.39h-18.48v-47.39h18.48Z"/>
    <path class="cls-1" d="m58.27,662.31h18.51v47.39h-20.81l-25.46-28.95v28.95H12.04v-47.39h25.42l20.81,25.11v-25.11Z"/>
    <path class="cls-1" d="m16.68,734.6h55.47v12.13h-36.99v6.07h36.99v10.97h-36.99v6.06h36.99v12.17H16.68v-47.39Z"/>
    <path class="cls-1" d="m44.8,825.09c13.22.67,31.81,1.59,31.77,13.47,0,13.54-15.52,16.75-32.16,16.75-16.61-.04-30.4-2.04-32.16-16.75h19.36c2.12,3.67,7.02,4.62,12.8,4.62s12.8-.95,12.8-4.62c0-2.08-5.75-2.4-13.19-2.75-13.22-.67-31.81-1.59-31.77-13.44,0-13.54,15.52-16.79,32.16-16.79,16.61.11,30.4,1.97,32.16,16.79h-19.36c-2.12-3.74-7.02-4.62-12.8-4.62s-12.8.85-12.8,4.62c0,2.08,5.75,2.36,13.19,2.71Z"/>
  </g>
  <g>
    <path class="cls-2" d="m1861.69,260.17v16.19h-18.48v-47.39h18.48v16.19h27.75v-16.19h18.51v47.39h-18.51v-16.19h-27.75Z"/>
    <path class="cls-2" d="m1847.85,301.25h55.47v12.13h-36.99v6.07h36.99v10.97h-36.99v6.07h36.99v12.17h-55.47v-47.39Z"/>
    <path class="cls-2" d="m1864.6,373.48h21.97l25.43,47.39h-20.81l-3.74-8.11h-23.73l-3.74,8.11h-20.8l25.42-47.39Zm4.48,27.72h13.01l-6.49-14-6.52,14Z"/>
    <path class="cls-2" d="m1885.39,445.7c13.01-.18,22.67,10.75,22.57,23.7.11,12.87-9.56,23.87-22.57,23.7h-42.18v-47.39h42.18Zm-3.46,15.02h-20.24v17.35h20.24c4.8,0,7.51-3.91,7.51-8.67s-2.71-8.67-7.51-8.67Z"/>
    <path class="cls-2" d="m1866.33,517.86v32.37h36.99v15.02h-55.47v-47.39h18.48Z"/>
    <path class="cls-2" d="m1884.83,590.08v47.39h-18.48v-47.39h18.48Z"/>
    <path class="cls-2" d="m1889.44,662.31h18.51v47.39h-20.81l-25.46-28.95v28.95h-18.48v-47.39h25.43l20.8,25.11v-25.11Z"/>
    <path class="cls-2" d="m1847.85,734.6h55.47v12.13h-36.99v6.07h36.99v10.97h-36.99v6.07h36.99v12.17h-55.47v-47.39Z"/>
    <path class="cls-2" d="m1875.97,825.09c13.22.67,31.81,1.59,31.77,13.47,0,13.54-15.52,16.75-32.16,16.75-16.61-.04-30.4-2.05-32.16-16.75h19.36c2.12,3.67,7.02,4.62,12.8,4.62s12.8-.95,12.8-4.62c0-2.08-5.75-2.4-13.19-2.75-13.22-.67-31.81-1.59-31.77-13.43,0-13.54,15.52-16.79,32.16-16.79,16.61.11,30.4,1.97,32.16,16.79h-19.36c-2.12-3.74-7.02-4.62-12.8-4.62s-12.8.85-12.8,4.62c0,2.08,5.75,2.36,13.19,2.71Z"/>
  </g>
</svg>