<?xml version="1.0" encoding="UTF-8"?>
<svg id="Layer_1" data-name="Layer 1" xmlns="http://www.w3.org/2000/svg" xmlns:xlink="http://www.w3.org/1999/xlink" viewBox="0 0 450 200">
  <defs>
    <style>
      .cls-1 {
        fill: url(#linear-gradient);
      }

      .cls-1, .cls-2 {
        stroke: #fff;
        stroke-miterlimit: 10;
      }

      .cls-3 {
        filter: url(#drop-shadow-1);
      }

      .cls-4 {
        fill: none;
      }

      .cls-2 {
        fill: url(#linear-gradient-2);
      }
    </style>
    <filter id="drop-shadow-1" filterUnits="userSpaceOnUse">
      <feOffset dx="0" dy="0"/>
      <feGaussianBlur result="blur" stdDeviation="2"/>
      <feFlood flood-color="#000" flood-opacity=".2"/>
      <feComposite in2="blur" operator="in"/>
      <feComposite in="SourceGraphic"/>
    </filter>
    <linearGradient id="linear-gradient" x1="145.63" y1="128.82" x2="263.76" y2="128.82" gradientUnits="userSpaceOnUse">
      <stop offset="0" stop-color="#fe7bac"/>
      <stop offset="1" stop-color="#7cbcec"/>
    </linearGradient>
    <linearGradient id="linear-gradient-2" x1="220.9" y1="51.09" x2="304.37" y2="51.09" xlink:href="#linear-gradient"/>
  </defs>
  <g class="cls-3">
    <path class="cls-1" d="m247.74,81.98h-86.34s-14.21,1.29-14.99,15.51c-.78,14.21-.78,60.22-.78,60.22,0,0,1.29,17.58,16.55,17.84,15.25.25,87.37,0,87.37,0,0,0,13.7-2.59,14.21-15.25v-63.85s-1.55-13.95-16.02-14.47Zm-37.48,51.18l-.26,14.99c-4.91,8.79-11.12,0-11.12,0v-15.51c-.36-.26-5.99-4.35-5.53-10.36.29-3.75,2.23-7.09,3.01-7.93,1.36-1.49,2.61-2.34,3.62-2.85,3.2-1.6,6.65-.95,8.67-.3,1.09.35,2.08.97,2.88,1.8,10.97,11.35-1.27,20.15-1.27,20.15Z"/>
    <path class="cls-4" d="m210.26,133.16l-.26,14.99c-4.91,8.79-11.12,0-11.12,0v-15.51c-.36-.26-5.99-4.35-5.53-10.36.29-3.75,2.23-7.09,3.01-7.93,1.36-1.49,2.61-2.34,3.62-2.85,3.2-1.6,6.65-.95,8.67-.3,1.09.35,2.08.97,2.88,1.8,10.97,11.35-1.27,20.15-1.27,20.15Z"/>
    <path class="cls-2" d="m221.18,77.84h17.58c-2.06-36.96,24.05-35.15,24.05-35.15,27.14-1.55,24.04,34.64,24.04,34.64h17.32c3.62-51.7-40.58-52.99-40.58-52.99-48.85,1.81-42.39,53.51-42.39,53.51Z"/>
    <path class="cls-4" d="m210.26,133.16l-.26,14.99c-4.91,8.79-11.12,0-11.12,0v-15.51c-.36-.26-5.99-4.35-5.53-10.36.29-3.75,2.23-7.09,3.01-7.93,1.36-1.49,2.61-2.34,3.62-2.85,3.2-1.6,6.65-.95,8.67-.3,1.09.35,2.08.97,2.88,1.8,10.97,11.35-1.27,20.15-1.27,20.15Z"/>
  </g>
</svg>