<?xml version="1.0" encoding="UTF-8"?>
<svg id="Layer_1" data-name="Layer 1" xmlns="http://www.w3.org/2000/svg" viewBox="0 0 16 16">
  <defs>
    <style>
      .cls-1 {
        fill: #ff7bac;
      }

      .cls-1, .cls-2 {
        stroke: #fff;
        stroke-miterlimit: 10;
        stroke-width: .25px;
      }

      .cls-2 {
        fill: #7cbded;
      }
    </style>
  </defs>
  <path class="cls-2" d="m10.33,10.33v-3.41c.7,0,1.05-.3,1.05-.9,0-.55-.27-.82-.82-.82s-.83.37-.82,1.12v4.63c0,2.14-1.4,3.29-3.35,3.29h0c0-1.32.42-2.11.42-3.43,0-1.38-.61-2.71-.61-4.09-.04-.45-.02-1.19.23-2.06.15-.54.42-1.04.79-1.5.42-.51.94-.92,1.57-1.22.63-.3,1.27-.45,1.94-.45,1.21,0,2.22.44,3.04,1.33.82.89,1.23,1.99,1.23,3.31s-.37,2.31-1.1,3.11c-.67.73-1.69,1.1-3.05,1.1h-.52s0-.01,0-.01Z"/>
  <path class="cls-1" d="m1,1.5h4.32c2.56,0,3.84,1.1,3.84,3.3,0,1.09-.44,2-1.32,2.72,1.27.6,1.91,1.68,1.91,3.23,0,1.19-.37,2.13-1.12,2.84-.37.34-.76.57-1.18.7s-.98.2-1.69.2h-.67v-3.33h.6c.36,0,.61-.05.75-.15.15-.1.22-.27.22-.52,0-.42-.3-.63-.89-.63h-.68v-3.47c.65,0,.97-.24.97-.73,0-.45-.29-.68-.87-.68h-.65v9.52H1V1.5h0Z"/>
</svg>