<?xml version="1.0" encoding="UTF-8"?>
<svg id="Layer_1" data-name="Layer 1" xmlns="http://www.w3.org/2000/svg" viewBox="0 0 1920 1080">
  <defs>
    <style>
      .cls-1 {
        fill: #7cbded;
      }

      .cls-2 {
        fill: #ff7bac;
        stroke: #fff;
        stroke-miterlimit: 10;
        stroke-width: 2px;
      }
    </style>
  </defs>
  <path class="cls-1" d="m902,550.94v-112.54c25.78,0,38.67-9.85,38.67-29.55,0-18.02-9.85-27.04-29.55-27.04s-29.86,12.37-29.86,37.09v152.78c0,70.49-57.14,127.63-127.63,127.63h0c0-43.46,22.05-88.76,22.05-132.23,0-45.61-22.05-89.37-22.05-134.98-1.36-14.7-.67-39.35,8.33-68.06,5.55-17.71,15.04-34.21,28.45-49.51,15.09-16.98,33.95-30.38,56.58-40.24,22.63-9.85,46-14.77,70.1-14.77,43.59,0,80.21,14.67,109.87,44.01,29.65,29.34,44.48,65.7,44.48,109.08s-13.31,76.29-39.92,102.48c-24.31,24.1-60.99,36.15-110.03,36.15l-19.49-.31Z"/>
  <path class="cls-2" d="m565.91,270.22h155.92c92.42,0,138.63,36.36,138.63,109.08,0,36.05-15.83,66.02-47.47,89.91,45.9,19.91,68.84,55.44,68.84,106.57,0,39.19-13.52,70.42-40.55,93.68-13.2,11.11-27.35,18.86-42.44,23.26-15.09,4.4-35.42,6.6-60.99,6.6h-24.21v-110.34h21.69c12.78,0,21.79-1.62,27.03-4.87,5.24-3.25,7.86-8.96,7.86-17.13,0-13.83-10.69-20.75-32.06-20.75h-24.52v-114.43c23.47,0,35.21-8.07,35.21-24.21,0-14.88-10.59-22.32-31.75-22.32h-23.58v314.05h-127.63v-429.1Z"/>
</svg>