<?xml version="1.0" encoding="UTF-8"?>
<svg id="Layer_1" data-name="Layer 1" xmlns="http://www.w3.org/2000/svg" xmlns:xlink="http://www.w3.org/1999/xlink" viewBox="0 0 1920 1080">
  <defs>
    <style>
      .cls-1 {
        opacity: .83;
      }

      .cls-2 {
        fill: url(#linear-gradient-2);
      }

      .cls-3 {
        stroke: url(#linear-gradient-26);
      }

      .cls-3, .cls-4, .cls-5, .cls-6, .cls-7, .cls-8, .cls-9, .cls-10, .cls-11, .cls-12, .cls-13, .cls-14, .cls-15, .cls-16, .cls-17 {
        fill: none;
        stroke-width: 2px;
      }

      .cls-18 {
        opacity: .5;
      }

      .cls-4 {
        stroke: url(#linear-gradient-23);
      }

      .cls-19 {
        fill: url(#linear-gradient-6);
      }

      .cls-5 {
        stroke: url(#linear-gradient-28);
      }

      .cls-20 {
        fill: url(#linear-gradient-11);
      }

      .cls-21 {
        fill: url(#linear-gradient-7);
      }

      .cls-21, .cls-22 {
        fill-opacity: 0;
      }

      .cls-23 {
        fill: url(#linear-gradient-10);
      }

      .cls-6 {
        stroke: url(#linear-gradient-29);
      }

      .cls-24 {
        opacity: .33;
      }

      .cls-25 {
        opacity: .17;
      }

      .cls-7 {
        stroke: url(#linear-gradient-25);
      }

      .cls-26 {
        fill: url(#linear-gradient-5);
      }

      .cls-8 {
        stroke: url(#linear-gradient-24);
      }

      .cls-9 {
        stroke: url(#linear-gradient-15);
      }

      .cls-10 {
        stroke: url(#linear-gradient-18);
      }

      .cls-22 {
        fill: url(#linear-gradient-14);
      }

      .cls-11 {
        stroke: url(#linear-gradient-27);
      }

      .cls-27 {
        fill: url(#linear-gradient-9);
      }

      .cls-28 {
        fill: url(#linear-gradient-3);
      }

      .cls-12 {
        stroke: url(#linear-gradient-17);
      }

      .cls-29 {
        fill: url(#linear-gradient);
      }

      .cls-13 {
        stroke: url(#linear-gradient-22);
      }

      .cls-14 {
        stroke: url(#linear-gradient-21);
      }

      .cls-15 {
        stroke: url(#linear-gradient-16);
      }

      .cls-30 {
        fill: url(#linear-gradient-4);
      }

      .cls-16 {
        stroke: url(#linear-gradient-20);
      }

      .cls-31 {
        fill: url(#linear-gradient-8);
      }

      .cls-17 {
        stroke: url(#linear-gradient-19);
      }

      .cls-32 {
        opacity: .67;
      }

      .cls-33 {
        fill: url(#linear-gradient-12);
      }

      .cls-34 {
        fill: url(#linear-gradient-13);
      }
    </style>
    <linearGradient id="linear-gradient" x1="0" y1="540" x2="305.06" y2="540" gradientUnits="userSpaceOnUse">
      <stop offset="0" stop-color="#ff7bac" stop-opacity="0"/>
      <stop offset=".26" stop-color="#ff7bac"/>
      <stop offset=".61" stop-color="#cd94c4"/>
      <stop offset="1" stop-color="#9baede"/>
    </linearGradient>
    <linearGradient id="linear-gradient-2" x1="0" y1="540.01" x2="262.36" y2="540.01" gradientUnits="userSpaceOnUse">
      <stop offset="0" stop-color="#ff7bac" stop-opacity="0"/>
      <stop offset=".26" stop-color="#ff7bac"/>
      <stop offset=".61" stop-color="#cd94c4"/>
      <stop offset="1" stop-color="#9baede"/>
    </linearGradient>
    <linearGradient id="linear-gradient-3" x1="-.02" y1="539.99" x2="219.62" y2="539.99" gradientUnits="userSpaceOnUse">
      <stop offset="0" stop-color="#ff7bac" stop-opacity="0"/>
      <stop offset=".26" stop-color="#ff7bac"/>
      <stop offset=".61" stop-color="#cd94c4"/>
      <stop offset="1" stop-color="#9baede"/>
    </linearGradient>
    <linearGradient id="linear-gradient-4" x1="0" y1="540" x2="176.95" y2="540" gradientUnits="userSpaceOnUse">
      <stop offset="0" stop-color="#ff7bac" stop-opacity="0"/>
      <stop offset=".26" stop-color="#ff7bac"/>
      <stop offset=".61" stop-color="#cd94c4"/>
      <stop offset="1" stop-color="#9baede"/>
    </linearGradient>
    <linearGradient id="linear-gradient-5" x1="0" y1="539.98" x2="134.25" y2="539.98" gradientUnits="userSpaceOnUse">
      <stop offset="0" stop-color="#ff7bac" stop-opacity="0"/>
      <stop offset=".26" stop-color="#ff7bac"/>
      <stop offset=".61" stop-color="#cd94c4"/>
      <stop offset="1" stop-color="#9baede"/>
    </linearGradient>
    <linearGradient id="linear-gradient-6" x1="0" y1="539.99" x2="91.54" y2="539.99" gradientUnits="userSpaceOnUse">
      <stop offset="0" stop-color="#ff7bac" stop-opacity="0"/>
      <stop offset=".26" stop-color="#ff7bac"/>
      <stop offset=".61" stop-color="#cd94c4"/>
      <stop offset="1" stop-color="#9baede"/>
    </linearGradient>
    <linearGradient id="linear-gradient-7" x1="0" y1="540" x2="48.84" y2="540" gradientUnits="userSpaceOnUse">
      <stop offset="0" stop-color="#ff7bac" stop-opacity="0"/>
      <stop offset=".26" stop-color="#ff7bac"/>
      <stop offset=".61" stop-color="#cd94c4"/>
      <stop offset="1" stop-color="#9baede"/>
    </linearGradient>
    <linearGradient id="linear-gradient-8" x1="1920" y1="540.01" x2="1614.94" y2="540.01" gradientUnits="userSpaceOnUse">
      <stop offset="0" stop-color="#ff7bac" stop-opacity="0"/>
      <stop offset=".26" stop-color="#ff7bac"/>
      <stop offset=".61" stop-color="#cd94c4"/>
      <stop offset="1" stop-color="#9baede"/>
    </linearGradient>
    <linearGradient id="linear-gradient-9" x1="1920" y1="540" x2="1657.64" y2="540" gradientUnits="userSpaceOnUse">
      <stop offset="0" stop-color="#ff7bac" stop-opacity="0"/>
      <stop offset=".26" stop-color="#ff7bac"/>
      <stop offset=".61" stop-color="#cd94c4"/>
      <stop offset="1" stop-color="#9baede"/>
    </linearGradient>
    <linearGradient id="linear-gradient-10" x1="1920" y1="540.01" x2="1700.35" y2="540.01" gradientUnits="userSpaceOnUse">
      <stop offset="0" stop-color="#ff7bac" stop-opacity="0"/>
      <stop offset=".26" stop-color="#ff7bac"/>
      <stop offset=".61" stop-color="#cd94c4"/>
      <stop offset="1" stop-color="#9baede"/>
    </linearGradient>
    <linearGradient id="linear-gradient-11" x1="1920" y1="539.98" x2="1743.06" y2="539.98" gradientUnits="userSpaceOnUse">
      <stop offset="0" stop-color="#ff7bac" stop-opacity="0"/>
      <stop offset=".26" stop-color="#ff7bac"/>
      <stop offset=".61" stop-color="#cd94c4"/>
      <stop offset="1" stop-color="#9baede"/>
    </linearGradient>
    <linearGradient id="linear-gradient-12" x1="1920" y1="540.02" x2="1785.75" y2="540.02" gradientUnits="userSpaceOnUse">
      <stop offset="0" stop-color="#ff7bac" stop-opacity="0"/>
      <stop offset=".26" stop-color="#ff7bac"/>
      <stop offset=".61" stop-color="#cd94c4"/>
      <stop offset="1" stop-color="#9baede"/>
    </linearGradient>
    <linearGradient id="linear-gradient-13" x1="1920" y1="540" x2="1828.46" y2="540" gradientUnits="userSpaceOnUse">
      <stop offset="0" stop-color="#ff7bac" stop-opacity="0"/>
      <stop offset=".26" stop-color="#ff7bac"/>
      <stop offset=".61" stop-color="#cd94c4"/>
      <stop offset="1" stop-color="#9baede"/>
    </linearGradient>
    <linearGradient id="linear-gradient-14" x1="1920.01" y1="539.99" x2="1871.18" y2="539.99" gradientUnits="userSpaceOnUse">
      <stop offset="0" stop-color="#ff7bac" stop-opacity="0"/>
      <stop offset=".26" stop-color="#ff7bac"/>
      <stop offset=".61" stop-color="#cd94c4"/>
      <stop offset="1" stop-color="#9baede"/>
    </linearGradient>
    <linearGradient id="linear-gradient-15" x1="103.26" y1="543.38" x2="395.03" y2="543.38" gradientUnits="userSpaceOnUse">
      <stop offset="0" stop-color="#ff7bac"/>
      <stop offset="1" stop-color="#7cbded"/>
    </linearGradient>
    <linearGradient id="linear-gradient-16" x1="1527.62" y1="546.67" x2="1819.24" y2="546.67" xlink:href="#linear-gradient-15"/>
    <linearGradient id="linear-gradient-17" x1="1527.62" y1="546.67" x2="1819.24" y2="546.67" xlink:href="#linear-gradient-15"/>
    <linearGradient id="linear-gradient-18" x1="1527.62" y1="546.67" x2="1819.24" y2="546.67" xlink:href="#linear-gradient-15"/>
    <linearGradient id="linear-gradient-19" x1="1527.62" y1="546.67" x2="1819.24" y2="546.67" xlink:href="#linear-gradient-15"/>
    <linearGradient id="linear-gradient-20" x1="1527.62" y1="546.67" x2="1819.24" y2="546.67" xlink:href="#linear-gradient-15"/>
    <linearGradient id="linear-gradient-21" x1="1527.62" y1="546.67" x2="1819.24" y2="546.67" xlink:href="#linear-gradient-15"/>
    <linearGradient id="linear-gradient-22" x1="1527.62" y1="546.67" x2="1819.24" y2="546.67" xlink:href="#linear-gradient-15"/>
    <linearGradient id="linear-gradient-23" x1="1527.62" y1="546.67" x2="1819.24" y2="546.67" xlink:href="#linear-gradient-15"/>
    <linearGradient id="linear-gradient-24" x1="1527.62" y1="546.67" x2="1819.24" y2="546.67" xlink:href="#linear-gradient-15"/>
    <linearGradient id="linear-gradient-25" x1="1527.62" y1="546.67" x2="1819.24" y2="546.67" xlink:href="#linear-gradient-15"/>
    <linearGradient id="linear-gradient-26" x1="1527.62" y1="546.67" x2="1819.24" y2="546.67" xlink:href="#linear-gradient-15"/>
    <linearGradient id="linear-gradient-27" x1="1527.62" y1="546.67" x2="1819.24" y2="546.67" xlink:href="#linear-gradient-15"/>
    <linearGradient id="linear-gradient-28" x1="1527.62" y1="546.67" x2="1819.24" y2="546.67" xlink:href="#linear-gradient-15"/>
    <linearGradient id="linear-gradient-29" x1="1527.62" y1="546.67" x2="1819.24" y2="546.67" xlink:href="#linear-gradient-15"/>
  </defs>
  <g>
    <path class="cls-29" d="m0,238.09l14.84-.07c4.94.15,9.89.43,14.85.64,1.24.03,2.47.19,3.7.31l3.7.39,7.4.77c.62.07,1.24.12,1.85.2l1.84.29,3.68.57,7.36,1.14c19.57,3.42,38.85,8.78,57.45,16.01,18.57,7.31,36.42,16.52,53.24,27.38,16.82,10.86,32.5,23.51,46.87,37.51l10.5,10.78c3.32,3.76,6.69,7.49,9.97,11.29,3.13,3.92,6.3,7.82,9.36,11.8l4.41,6.11,2.2,3.06c.73,1.02,1.49,2.02,2.15,3.09,11.29,16.63,20.96,34.38,28.8,52.93,15.61,37.13,23.58,77.42,23.69,117.71-.13,40.28-8.07,80.58-23.71,117.7-15.69,37.07-38.63,71.06-67.4,99.05-14.37,14-30.04,26.66-46.86,37.51-16.82,10.85-34.66,20.08-53.23,27.38-18.6,7.23-37.88,12.6-57.45,16.02l-7.36,1.15-3.68.57-1.84.29c-.61.08-1.23.13-1.85.2l-7.4.77-3.7.39c-1.23.12-2.46.29-3.7.31-4.96.21-9.9.49-14.84.64l-14.84-.07v-.7c39.43-.04,78.85-7.82,115.25-22.98,36.41-15.1,69.77-37.48,97.62-65.37s50.17-61.27,65.21-97.69c15.09-36.4,22.8-75.79,22.79-115.18.01-39.39-7.7-78.78-22.79-115.18-15.04-36.41-37.36-69.79-65.21-97.69-27.85-27.89-61.2-50.27-97.62-65.37-36.4-15.16-75.81-22.93-115.25-22.98v-.7.02h0Z"/>
    <g class="cls-1">
      <path class="cls-2" d="m0,280.34l12.76-.06c4.25.13,8.51.37,12.77.55,1.07.02,2.12.17,3.18.27l3.18.33,6.37.66c1.06.09,2.12.24,3.17.42l3.16.49,6.33.99c16.83,2.94,33.41,7.56,49.41,13.78,31.91,12.66,61.31,31.79,86.05,55.85l9.05,9.26c2.86,3.23,5.76,6.43,8.59,9.69,2.7,3.37,5.42,6.72,8.06,10.15,2.51,3.52,5.1,6.98,7.54,10.54,9.71,14.3,18.03,29.57,24.77,45.52,13.43,31.93,20.28,66.58,20.37,101.23-.11,34.64-6.94,69.3-20.39,101.22-6.74,15.95-15.05,31.21-24.76,45.52-2.44,3.57-5.03,7.03-7.54,10.54-2.63,3.42-5.35,6.78-8.06,10.14-2.83,3.26-5.73,6.46-8.59,9.69l-9.05,9.26c-24.73,24.06-54.13,43.2-86.04,55.85-16,6.22-32.57,10.84-49.41,13.78l-6.33.99-3.16.49c-1.05.18-2.11.33-3.17.42l-6.37.67-3.18.33c-1.06.11-2.12.25-3.18.27-4.26.18-8.51.42-12.77.56L0,799.68v-.6c33.92-.04,67.82-6.73,99.12-19.76,31.32-12.99,60.01-32.24,83.96-56.22,23.95-23.99,43.15-52.7,56.08-84.02,12.98-31.3,19.61-65.18,19.6-99.06,0-33.88-6.62-67.76-19.6-99.06-12.94-31.32-32.13-60.03-56.08-84.02-23.95-23.98-52.64-43.23-83.96-56.22-31.3-13.04-65.2-19.72-99.12-19.76v-.62h0Z"/>
    </g>
    <g class="cls-32">
      <path class="cls-28" d="m0,322.59l10.68-.05c3.56.11,7.12.31,10.69.46,3.56.27,7.1.71,10.66,1.06.89.08,1.77.2,2.66.35l2.65.41,5.3.83c14.09,2.46,27.97,6.33,41.37,11.54,26.72,10.6,51.33,26.62,72.04,46.76l7.57,7.75c2.39,2.7,4.82,5.38,7.19,8.11,2.26,2.82,4.54,5.63,6.74,8.5,2.1,2.94,4.27,5.84,6.31,8.83,8.13,11.97,15.09,24.75,20.73,38.11,11.24,26.73,16.98,55.74,17.05,84.75-.09,29-5.81,58.02-17.07,84.74-5.64,13.35-12.6,26.13-20.73,38.11-2.04,2.98-4.21,5.88-6.31,8.83-2.2,2.87-4.48,5.68-6.75,8.49-2.37,2.73-4.8,5.41-7.19,8.11l-7.57,7.75c-20.7,20.14-45.31,36.17-72.03,46.76-13.39,5.21-27.27,9.08-41.36,11.54l-5.3.83-2.65.41c-.88.15-1.76.27-2.66.35-3.56.35-7.1.8-10.66,1.06-3.57.15-7.13.36-10.69.47l-10.68-.05v-.5c28.4-.03,56.78-5.63,82.99-16.55,26.22-10.88,50.24-26.99,70.29-47.07,20.05-20.09,36.13-44.12,46.96-70.34,10.87-26.21,16.42-54.58,16.41-82.94,0-28.36-5.54-56.73-16.41-82.94-10.83-26.22-26.9-50.26-46.96-70.34-20.05-20.08-44.07-36.2-70.3-47.07-26.21-10.91-54.59-16.51-82.99-16.54v-.5l.02-.02h0Z"/>
    </g>
    <g class="cls-18">
      <path class="cls-30" d="m0,364.85l8.61-.04c2.87.09,5.74.25,8.61.38,2.87.22,5.72.57,8.59.86,2.86.35,5.69.86,8.54,1.28,11.35,1.99,22.53,5.1,33.32,9.3,21.52,8.54,41.35,21.45,58.03,37.68l6.1,6.24c1.93,2.18,3.89,4.34,5.79,6.54,1.82,2.27,3.65,4.54,5.42,6.86,1.69,2.37,3.43,4.71,5.07,7.12,6.52,9.66,12.1,19.96,16.62,30.72,9.05,21.51,13.76,44.85,13.85,68.22-.11,23.37-4.81,46.7-13.86,68.22-4.51,10.76-10.09,21.06-16.62,30.72-1.64,2.41-3.38,4.75-5.07,7.12-1.77,2.31-3.59,4.59-5.42,6.85-1.91,2.2-3.86,4.36-5.79,6.54l-6.1,6.24c-16.68,16.23-36.5,29.14-58.02,37.68-10.79,4.2-21.97,7.32-33.32,9.3-2.85.42-5.69.94-8.54,1.28-2.87.28-5.72.64-8.59.86-2.87.12-5.74.29-8.61.38L0,715.16v-.4c22.88-.03,45.74-4.54,66.86-13.33,21.13-8.76,40.48-21.75,56.63-37.92,16.16-16.18,29.11-35.55,37.83-56.67,8.76-21.12,13.23-43.97,13.22-66.82,0-22.85-4.47-45.71-13.22-66.82-8.73-21.13-21.68-40.49-37.83-56.67-16.16-16.18-35.51-29.16-56.63-37.92C45.74,369.82,22.88,365.31,0,365.28v-.43h0Z"/>
    </g>
    <g class="cls-24">
      <path class="cls-26" d="m0,407.1l6.53-.03c2.18.07,4.35.19,6.53.29,2.17.16,4.34.44,6.51.65,2.17.26,4.32.65,6.48.97,8.61,1.51,17.1,3.88,25.28,7.06,16.33,6.48,31.37,16.28,44.02,28.59l4.63,4.74,4.39,4.96c1.38,1.72,2.77,3.45,4.11,5.2,1.28,1.8,2.6,3.58,3.84,5.4,4.95,7.33,9.18,15.15,12.61,23.31,6.86,16.32,10.43,34.03,10.51,51.75-.08,17.73-3.64,35.43-10.51,51.75-6.87,16.3-16.87,31.33-29.58,43.6-12.65,12.31-27.69,22.11-44.02,28.59-8.18,3.19-16.67,5.55-25.28,7.06-2.16.32-4.31.71-6.48.97-2.17.21-4.34.49-6.51.65-2.18.09-4.36.22-6.53.29L0,672.87v-.3c17.36-.02,34.71-3.44,50.73-10.11,16.03-6.65,30.71-16.5,42.98-28.77,12.26-12.28,22.09-26.97,28.71-43,6.64-16.02,10.04-33.36,10.03-50.7,0-17.34-3.39-34.68-10.03-50.7-6.62-16.03-16.45-30.72-28.71-43s-26.94-22.13-42.97-28.78c-16.02-6.67-33.37-10.1-50.73-10.11v-.3h0Z"/>
    </g>
    <g class="cls-25">
      <path class="cls-19" d="m0,449.36c11.87-.38,23.85,1.79,35.01,6.12,11.13,4.42,21.38,11.11,30.01,19.5,8.66,8.37,15.48,18.62,20.16,29.73,4.68,11.13,7.11,23.2,7.16,35.28-.06,12.08-2.48,24.15-7.16,35.28-4.68,11.11-11.5,21.36-20.16,29.73-8.62,8.4-18.87,15.08-30,19.5-11.16,4.34-23.13,6.5-35.01,6.13v-.2c11.84-.01,23.67-2.35,34.6-6.9,10.93-4.53,20.95-11.25,29.31-19.63,8.36-8.37,15.06-18.4,19.58-29.33,4.53-10.93,6.85-22.76,6.84-34.58,0-11.83-2.31-23.66-6.85-34.58-4.52-10.93-11.22-20.96-19.58-29.33s-18.38-15.09-29.31-19.63c-10.93-4.55-22.76-6.89-34.6-6.9v-.2h0Z"/>
    </g>
    <path class="cls-21" d="m0,491.61c6.33-.13,12.72.98,18.68,3.3,5.94,2.36,11.4,5.93,16,10.41,9.23,8.97,14.54,21.78,14.56,34.68-.02,12.9-5.33,25.71-14.56,34.68-4.6,4.48-10.06,8.05-16,10.41-5.95,2.32-12.34,3.43-18.68,3.3v-.1c6.32-.02,12.64-1.26,18.47-3.69,5.84-2.42,11.19-6,15.65-10.47s8.04-9.83,10.45-15.66c2.42-5.84,3.66-12.15,3.66-18.47s-1.24-12.63-3.66-18.46c-2.41-5.84-5.99-11.19-10.45-15.66-4.47-4.47-9.82-8.05-15.65-10.47-5.84-2.43-12.15-3.67-18.47-3.69v-.1h0Z"/>
  </g>
  <g>
    <path class="cls-31" d="m1920,238.79l-14.76.82c-4.9.45-9.79,1.03-14.68,1.53-4.88.62-9.73,1.43-14.58,2.13-.61.09-1.21.17-1.82.28l-1.81.37-3.61.73-7.21,1.46c-19.15,4.25-37.84,10.38-55.7,18.27-17.9,7.8-35.02,17.31-51.01,28.41-15.99,11.09-30.97,23.61-44.53,37.51l-9.91,10.67c-3.12,3.72-6.29,7.39-9.37,11.13-2.93,3.86-5.97,7.64-8.85,11.53l-4.17,5.95-2.08,2.98c-.69.99-1.41,1.97-2.03,3.01-10.66,16.18-19.71,33.4-26.99,51.32-7.29,17.91-12.93,36.5-16.62,55.48-3.72,18.97-5.54,38.31-5.53,57.64-.02,19.34,1.81,38.67,5.52,57.64,3.69,18.98,9.34,37.56,16.61,55.48,7.28,17.92,16.33,35.14,26.99,51.32.62,1.04,1.34,2.01,2.03,3.01l2.08,2.98,4.17,5.95c2.89,3.89,5.93,7.67,8.85,11.54,3.08,3.74,6.25,7.41,9.37,11.13l9.91,10.67c13.56,13.9,28.55,26.42,44.54,37.51,15.99,11.1,33.12,20.6,51.01,28.41,17.86,7.89,36.55,14.02,55.7,18.26l7.21,1.46,3.61.73,1.81.36c.6.11,1.21.19,1.82.28,4.86.7,9.71,1.51,14.58,2.13,4.89.5,9.78,1.08,14.68,1.53l14.76.82v.7c-39.52.01-79.06-7.72-115.58-22.87-36.54-15.09-70.04-37.49-98.03-65.44-27.98-27.95-50.44-61.42-65.6-97.96-15.21-36.52-23.01-76.08-23.06-115.65.04-39.57,7.85-79.12,23.05-115.65,15.16-36.54,37.61-70.01,65.6-97.96,27.99-27.94,61.48-50.34,98.03-65.43,36.53-15.15,76.06-22.88,115.58-22.87v.7h.02Z"/>
    <g class="cls-1">
      <path class="cls-27" d="m1920,280.94l-12.69.71c-4.22.39-8.42.88-12.63,1.32-4.19.53-8.36,1.23-12.54,1.83-1.05.14-2.08.34-3.12.56l-3.1.63-6.2,1.25c-16.47,3.65-32.54,8.92-47.91,15.71-30.84,13.31-58.93,32.69-82.22,56.65l-8.5,9.19c-2.68,3.2-5.39,6.37-8.04,9.59-2.52,3.33-5.13,6.58-7.61,9.92-2.37,3.43-4.82,6.8-7.13,10.27-9.17,13.92-16.96,28.72-23.21,44.14-6.27,15.41-11.12,31.39-14.3,47.72-3.2,16.32-4.76,32.95-4.76,49.58-.02,16.63,1.56,33.26,4.75,49.58,3.17,16.33,8.04,32.31,14.29,47.72,6.26,15.42,14.05,30.22,23.22,44.14,2.3,3.47,4.76,6.84,7.13,10.27,2.48,3.35,5.1,6.59,7.61,9.93,2.64,3.22,5.36,6.39,8.04,9.59l8.5,9.19c23.29,23.96,51.39,43.33,82.23,56.65,15.37,6.78,31.44,12.05,47.91,15.7l6.2,1.25,3.1.63c1.03.22,2.07.42,3.12.56,4.18.6,8.35,1.3,12.54,1.83,4.2.43,8.41.93,12.63,1.31l12.69.7v.6c-33.99.01-67.99-6.64-99.41-19.67-31.43-12.98-60.24-32.25-84.31-56.28-24.07-24.04-43.38-52.82-56.42-84.25-13.08-31.41-19.79-65.43-19.83-99.46.03-34.03,6.75-68.05,19.83-99.46,13.04-31.43,32.35-60.21,56.42-84.25,24.07-24.03,52.88-43.3,84.31-56.28,31.41-13.03,65.41-19.68,99.41-19.67v.6h0Z"/>
    </g>
    <g class="cls-32">
      <path class="cls-23" d="m1920,323.09l-10.63.59c-3.53.32-7.05.74-10.57,1.1-3.51.44-7,1.03-10.5,1.53-.88.11-1.74.28-2.61.47l-2.6.53-5.19,1.05c-13.79,3.06-27.25,7.47-40.11,13.15-25.82,11.14-49.34,27.37-68.85,47.43l-7.12,7.7c-2.24,2.68-4.52,5.33-6.73,8.03-2.11,2.79-4.3,5.51-6.38,8.31-1.98,2.87-4.04,5.69-5.97,8.6-7.68,11.65-14.2,24.05-19.44,36.96-5.25,12.9-9.31,26.29-11.97,39.96-2.68,13.66-3.99,27.59-3.98,41.52-.02,13.93,1.31,27.85,3.98,41.52,2.66,13.67,6.73,27.05,11.97,39.96,5.24,12.91,11.77,25.31,19.44,36.96,1.93,2.9,3.98,5.73,5.97,8.6,2.08,2.8,4.27,5.52,6.37,8.31,2.21,2.7,4.49,5.35,6.73,8.03l7.12,7.7c19.5,20.06,43.03,36.28,68.85,47.43,12.87,5.68,26.32,10.09,40.12,13.14l5.19,1.05,2.6.52c.87.18,1.73.35,2.61.46,3.5.51,6.99,1.09,10.5,1.53,3.52.36,7.04.77,10.57,1.1l10.63.59v.5c-28.46.01-56.93-5.56-83.23-16.47-26.31-10.87-50.43-27-70.59-47.12-20.15-20.12-36.32-44.23-47.23-70.54-10.95-26.3-16.57-54.78-16.6-83.28.03-28.49,5.65-56.98,16.6-83.28,10.91-26.31,27.08-50.42,47.23-70.54s44.27-36.25,70.59-47.12c26.3-10.91,54.77-16.48,83.23-16.47v.5h0Z"/>
    </g>
    <g class="cls-18">
      <path class="cls-20" d="m1920,365.25l-8.56.47c-2.85.26-5.68.59-8.52.88-2.83.36-5.64.83-8.46,1.24-2.81.47-5.59,1.1-8.38,1.64-11.11,2.46-21.95,6.02-32.32,10.59-20.8,8.98-39.76,22.05-55.48,38.21l-5.74,6.2c-1.81,2.16-3.64,4.3-5.42,6.47-1.7,2.24-3.47,4.43-5.15,6.68-1.61,2.31-3.27,4.58-4.83,6.92-6.21,9.38-11.5,19.36-15.75,29.75-8.53,20.79-12.82,43.25-12.75,65.69-.09,22.44,4.21,44.9,12.74,65.7,4.25,10.4,9.54,20.38,15.75,29.75,1.56,2.34,3.22,4.61,4.83,6.92,1.68,2.25,3.46,4.44,5.14,6.69,1.78,2.17,3.62,4.31,5.43,6.47l5.74,6.2c15.72,16.16,34.68,29.23,55.48,38.21,10.37,4.57,21.21,8.13,32.32,10.58,2.79.54,5.57,1.17,8.38,1.64,2.82.41,5.63.88,8.46,1.23,2.84.29,5.67.62,8.52.88l8.56.47v.4c-22.93,0-45.86-4.48-67.05-13.27-21.2-8.76-40.63-21.75-56.87-37.96-16.23-16.21-29.26-35.63-38.05-56.83-8.82-21.19-13.35-44.14-13.38-67.09.02-22.96,4.55-45.9,13.37-67.09,8.79-21.2,21.82-40.62,38.06-56.83,16.24-16.21,35.67-29.21,56.87-37.96,21.19-8.79,44.12-13.28,67.05-13.27v.42h.01Z"/>
    </g>
    <g class="cls-24">
      <path class="cls-33" d="m1920,407.4l-6.5.36c-2.16.2-4.31.45-6.46.67-2.15.27-4.28.63-6.42.94-2.13.35-4.24.83-6.36,1.24-8.43,1.86-16.66,4.56-24.53,8.03-15.79,6.81-30.18,16.73-42.1,28.99l-4.36,4.71-4.12,4.91c-1.29,1.7-2.63,3.36-3.91,5.07-1.22,1.75-2.48,3.47-3.66,5.25-4.71,7.12-8.73,14.69-11.95,22.58-6.48,15.78-9.74,32.83-9.68,49.86-.07,17.03,3.2,34.08,9.67,49.86,3.23,7.89,7.24,15.47,11.95,22.58,1.18,1.77,2.45,3.5,3.66,5.25l3.91,5.08,4.12,4.91,4.36,4.71c11.93,12.26,26.32,22.18,42.11,28.99,7.87,3.47,16.1,6.16,24.53,8.02,2.12.41,4.23.89,6.36,1.24,2.14.31,4.27.66,6.42.94,2.15.22,4.3.47,6.46.67l6.5.36v.3c-17.4,0-34.8-3.4-50.88-10.07-16.09-6.64-30.83-16.5-43.15-28.8-12.32-12.3-22.2-27.03-28.88-43.12-6.69-16.08-10.13-33.49-10.15-50.91.02-17.42,3.45-34.83,10.15-50.91,6.67-16.08,16.56-30.82,28.88-43.12s27.06-22.16,43.15-28.8c16.08-6.67,33.48-10.07,50.88-10.07v.3-.02h0Z"/>
    </g>
    <g class="cls-25">
      <path class="cls-34" d="m1920,449.56c-23.7.61-46.75,10.63-63.02,27.42-4.06,4.19-7.72,8.76-10.95,13.6-3.22,4.85-5.95,10.02-8.16,15.41-4.42,10.77-6.65,22.4-6.61,34.02-.05,11.62,2.19,23.25,6.6,34.02,4.39,10.79,11.01,20.62,19.11,29.01,16.28,16.78,39.33,26.81,63.03,27.41v.2c-11.87,0-23.73-2.32-34.7-6.87-10.97-4.53-21.03-11.26-29.43-19.65s-15.14-18.44-19.69-29.41c-4.57-10.96-6.91-22.84-6.92-34.72.01-11.88,2.36-23.75,6.92-34.72,4.55-10.97,11.29-21.02,19.69-29.41,8.4-8.39,18.46-15.11,29.43-19.65,10.97-4.55,22.83-6.87,34.7-6.87v.2h0Z"/>
    </g>
    <path class="cls-22" d="m1920,491.71c-6.32.15-12.59,1.53-18.32,4.06-5.76,2.47-11.01,6.08-15.36,10.54-4.33,4.48-7.87,9.73-10.21,15.5-2.36,5.75-3.55,11.97-3.54,18.18-.01,6.21,1.18,12.43,3.54,18.18,2.34,5.77,5.88,11.02,10.21,15.5,4.36,4.46,9.61,8.07,15.37,10.54,5.73,2.53,12,3.91,18.32,4.06v.1c-6.34,0-12.67-1.25-18.52-3.67-5.86-2.42-11.23-6-15.71-10.48s-8.08-9.85-10.5-15.7c-2.44-5.85-3.69-12.19-3.7-18.53.01-6.34,1.27-12.68,3.7-18.53,2.43-5.86,6.02-11.22,10.5-15.7,4.49-4.48,9.86-8.06,15.71-10.48,5.85-2.43,12.19-3.67,18.52-3.67v.1h-.01Z"/>
  </g>
  <g>
    <path class="cls-9" d="m179.69,199.29l18.49,7.29-35.1,34.83-19.53-7.7-.94-24.71-17.55,17.42-19.53-7.7-1.88-49.42,18.49,7.29-.77,30.52,20.3-22.82,18.49,7.29-.77,30.52,20.3-22.82Z"/>
    <path class="cls-9" d="m202.85,247.74l-8.9,12.64-14.43-10.16,26.07-37.02,14.43,10.16-8.9,12.64,21.68,15.26,8.9-12.64,14.46,10.18-26.07,37.02-14.46-10.18,8.9-12.64-21.68-15.26Z"/>
    <path class="cls-9" d="m274.42,289.63l20.91-1.74,14.57,15.07-39.1,2.46-11.12,10.75-12.27-12.7,11.12-10.75,3.78-39,14.59,15.1-2.47,20.81Z"/>
    <path class="cls-9" d="m337.06,339.92l9.77,19.83-12.51,25.85,28.13,5.86,9.75,19.8-40.63,20.02-7.8-15.84,21.67-10.68-29.49-5.19-3.9-7.92,13.85-26.55-21.67,10.68-7.8-15.84,40.63-20.02Z"/>
    <path class="cls-9" d="m386.79,469.77l4.05,17.22-23.68,5.56c-16.64,3.98-24.64-8.54-28.55-25.05-3.85-16.53-2.27-31.3,14.4-35.15l23.68-5.56,4.04,17.18-22.59,5.31c-7.26,1.64-7.11,7.87-5.56,14.94,1.75,6.99,4.4,12.67,11.62,10.87l22.59-5.31Z"/>
    <path class="cls-9" d="m393.18,518.9l-30.9,1.37,1.57,35.31-14.34.64-2.35-52.95,45.24-2.01.78,17.64Z"/>
    <path class="cls-9" d="m348.19,564.01l30.83,2.51,1.7-20.92,14.31,1.16-4.83,59.44-14.31-1.16,1.7-20.92-30.83-2.51,1.43-17.6Z"/>
    <path class="cls-9" d="m383.81,633.41l-44.3-9.37,3.65-17.27,44.3,9.37-3.65,17.27Z"/>
    <path class="cls-9" d="m343,660.72l25.16,23.37-6.53,18.78-35.16-36.8,6.89-19.83,50.39-7.03-6.53,18.78-34.23,2.73Z"/>
    <path class="cls-9" d="m358.01,709.34l-25.92,46.23-10.11-5.67,17.29-30.83-5.05-2.83-17.29,30.83-9.14-5.12,17.29-30.83-5.05-2.83-17.29,30.83-10.14-5.69,25.92-46.23,39.5,22.15Z"/>
    <path class="cls-9" d="m295.29,802.18c-5.93,7.2-17.04,8.2-24.11,2.07-2.6-2.19-4.39-4.88-5.33-8.05-.94-3.12-.99-6.3-.14-9.46l-16.07-.63,12.11-14.38,13.94.6,10.15-12.06-8.45-7.12,11.37-13.5,34.64,29.16-28.1,33.38Zm6.6-28.4l-5.9-4.97-13.86,16.47c-.69.83-1,1.76-.91,2.8.09,1.09.55,1.96,1.35,2.63,1.65,1.39,4.07,1.18,5.46-.47l13.87-16.47Z"/>
    <path class="cls-9" d="m241.63,828.85c-10.18,7.5-24.48,18.07-31.64,9.26-8.19-10.01,1.34-21.77,13.65-31.84,12.3-10.02,23.72-16.88,33.92-7.07l-14.32,11.71c-3.78-1.43-7.98.83-12.26,4.33-4.25,3.48-8.89,8.45-6.67,11.16,1.26,1.54,5.7-1.7,11.42-5.94,10.18-7.5,24.48-18.07,31.62-9.28,8.19,10.01-1.32,21.8-13.63,31.87-12.35,9.97-23.67,16.93-33.94,7.04l14.32-11.71c3.83,1.48,7.98-.83,12.26-4.33,4.25-3.48,8.95-8.37,6.67-11.16-1.26-1.54-5.68,1.73-11.4,5.97Z"/>
    <path class="cls-9" d="m184.97,886.88l-19.3,10.7,9.79-31.32-31.75-8.28,19.3-10.7,17.53,5.42,4.69-17.74,19.33-10.72-9.79,31.32,31.75,8.28-19.33,10.72-17.51-5.39-4.7,17.71Z"/>
    <path class="cls-9" d="m141.21,893.64l13.57-4.58c.15.34.27.69.39,1.04,1.1,3.26,1.87,6.91.37,10.47-.72,1.77-2.11,3.45-4.18,5.11-2.1,1.67-5.16,3.16-9.21,4.53l-15.71,5.3c-16.18,5.46-20.34-1.6-22.54-8.11-2.27-6.63,1.93-9.25,6.04-11.92,4.03-2.5,7.99-5.19,5.91-11.35l16.76-5.66c3.79,11.24-4.54,16.36-10.38,19.61-3.01,1.73-5.27,3.13-4.73,4.73.45,1.34,1.23,2.07,2.33,2.16,1.11.12,2.97-.26,5.59-1.14l10.47-3.53c2.62-.88,4.33-1.71,5.15-2.45.82-.74.99-1.79.53-3.17l-.36-1.05Zm-13.9-30.87l3.53,10.47-16.76,5.66-3.53-10.47,16.76-5.66Z"/>
  </g>
  <g>
    <path class="cls-15" d="m1743.16,890.81l-18.5-7.28,35.09-34.86,19.54,7.69.96,24.71,17.55-17.43,19.54,7.69,1.91,49.43-18.5-7.28.75-30.52-20.29,22.83-18.5-7.28.75-30.52-20.29,22.83Z"/>
    <path class="cls-12" d="m1719.99,842.37l8.89-12.65,14.44,10.15-26.04,37.04-14.44-10.15,8.89-12.65-21.69-15.25-8.89,12.65-14.47-10.17,26.04-37.04,14.47,10.17-8.9,12.65,21.69,15.25Z"/>
    <path class="cls-10" d="m1648.39,800.53l-20.91,1.76-14.58-15.06,39.1-2.48,11.12-10.76,12.28,12.69-11.12,10.76-3.76,39-14.6-15.09,2.46-20.81Z"/>
    <path class="cls-17" d="m1585.75,750.31l-9.78-19.82,12.49-25.85-28.13-5.84-9.76-19.79,40.61-20.04,7.81,15.83-21.66,10.69,29.49,5.17,3.91,7.92-13.84,26.55,21.66-10.69,7.81,15.83-40.61,20.04Z"/>
    <path class="cls-16" d="m1535.89,620.48l-4.06-17.21,23.67-5.59c16.64-4,24.65,8.52,28.58,25.04,3.87,16.54,2.3,31.31-14.38,35.17l-23.68,5.58-4.05-17.18,22.59-5.33c7.26-1.64,7.11-7.87,5.54-14.95-1.75-6.99-4.41-12.67-11.63-10.86l-22.59,5.33Z"/>
    <path class="cls-14" d="m1529.49,571.33l30.9-1.39-1.58-35.31,14.34-.64,2.38,52.95-45.24,2.03-.79-17.64Z"/>
    <path class="cls-13" d="m1574.45,526.18l-30.83-2.49-1.69,20.92-14.31-1.16,4.81-59.44,14.31,1.16-1.69,20.92,30.83,2.49-1.42,17.6Z"/>
    <path class="cls-4" d="m1538.79,456.83l44.3,9.35-3.65,17.27-44.3-9.35,3.65-17.27Z"/>
    <path class="cls-8" d="m1579.58,429.49l-25.17-23.36,6.52-18.78,35.17,36.78-6.88,19.83-50.38,7.05,6.52-18.78,34.23-2.74Z"/>
    <path class="cls-7" d="m1564.54,380.87l25.9-46.23,10.11,5.66-17.27,30.83,5.05,2.83,17.27-30.83,9.14,5.12-17.27,30.83,5.06,2.83,17.27-30.83,10.14,5.68-25.9,46.23-39.5-22.13Z"/>
    <path class="cls-3" d="m1627.18,288.01c5.93-7.21,17.03-8.22,24.11-2.09,2.6,2.19,4.39,4.88,5.34,8.05.94,3.12,1,6.3.15,9.46l16.08.62-12.1,14.39-13.94-.59-10.15,12.07,8.46,7.11-11.36,13.51-34.66-29.14,28.08-33.39Zm-6.58,28.4l5.91,4.97,13.86-16.48c.69-.83,1-1.76.91-2.8-.09-1.09-.55-1.96-1.35-2.63-1.65-1.39-4.07-1.18-5.46.47l-13.86,16.48Z"/>
    <path class="cls-11" d="m1680.83,261.29c10.18-7.51,24.47-18.08,31.64-9.28,8.2,10.01-1.33,21.77-13.63,31.85-12.3,10.03-23.7,16.89-33.91,7.09l14.31-11.72c3.78,1.43,7.98-.83,12.26-4.33,4.25-3.48,8.88-8.45,6.66-11.16-1.26-1.54-5.7,1.71-11.41,5.95-10.18,7.51-24.47,18.08-31.62,9.3-8.2-10.01,1.31-21.8,13.61-31.87,12.34-9.98,23.66-16.94,33.93-7.06l-14.31,11.72c-3.83-1.48-7.98.83-12.26,4.33-4.25,3.48-8.95,8.37-6.66,11.16,1.26,1.54,5.68-1.73,11.39-5.98Z"/>
    <path class="cls-5" d="m1737.42,203.22l19.29-10.72-9.76,31.33,31.76,8.25-19.29,10.72-17.54-5.4-4.67,17.75-19.32,10.74,9.76-31.33-31.76-8.25,19.32-10.74,17.52,5.37,4.68-17.72Z"/>
    <path class="cls-6" d="m1781.21,196.43l-13.57,4.58c-.15-.34-.27-.69-.39-1.04-1.1-3.26-1.87-6.91-.37-10.47.72-1.77,2.11-3.45,4.18-5.11,2.1-1.67,5.15-3.16,9.21-4.53l15.71-5.31c16.18-5.47,20.35,1.59,22.55,8.1,2.28,6.63-1.92,9.26-6.04,11.93-4.03,2.5-7.99,5.19-5.91,11.35l-16.76,5.66c-3.8-11.24,4.54-16.36,10.37-19.62,3.01-1.73,5.27-3.13,4.73-4.73-.45-1.34-1.23-2.07-2.33-2.16-1.11-.12-2.97.26-5.59,1.14l-10.47,3.54c-2.62.88-4.33,1.71-5.15,2.45s-.99,1.79-.53,3.17l.36,1.05Zm13.92,30.86l-3.54-10.47,16.76-5.66,3.54,10.47-16.76,5.66Z"/>
  </g>
</svg>